<svg width="56" height="56" viewBox="0 0 56 56" fill="none" xmlns="http://www.w3.org/2000/svg">
<rect width="56" height="56" rx="8" fill="#FF2056" fill-opacity="0.2"/>
<path d="M44.5134 18.5512C44.4467 18.4845 44.4467 18.4845 44.4467 18.4178C44.38 18.3511 44.38 18.3511 44.38 18.3511L44.3133 18.2844C44.3133 18.2844 44.2466 18.2844 44.2466 18.2177L37.8428 14.5488C37.7761 14.4821 37.6427 14.4821 37.576 14.4821C37.4425 14.4821 37.3758 14.4821 37.3091 14.5488L30.9053 18.2177C30.8386 18.2844 30.8386 18.2844 30.8386 18.2844C30.7719 18.2844 30.7719 18.3511 30.7719 18.3511C30.7719 18.3511 30.7052 18.3511 30.7052 18.4178C30.7052 18.4845 30.6385 18.4845 30.6385 18.5512C30.6385 18.6179 30.6385 18.6846 30.6385 18.6846V25.7555L25.2353 28.824V15.0825C25.2353 15.0158 25.2353 15.0158 25.2353 14.9491V14.8824C25.2353 14.8824 25.2353 14.8157 25.1686 14.8157V14.7489C25.1686 14.7489 25.1019 14.7489 25.1019 14.6822C25.1019 14.6822 25.1019 14.6822 25.0352 14.6822C25.0352 14.6155 25.0352 14.6155 24.9685 14.6155L18.5646 10.9467C18.4979 10.88 18.4312 10.88 18.2978 10.88C18.2311 10.88 18.0977 10.88 18.031 10.9467L11.6272 14.6155C11.6272 14.6155 11.5605 14.6155 11.5605 14.6822H11.4938C11.4938 14.7489 11.4938 14.7489 11.4271 14.7489V14.8157C11.4271 14.8157 11.4271 14.8824 11.3604 14.8824V14.9491C11.3604 15.0158 11.3604 15.0158 11.3604 15.0825V37.0956C11.3604 37.2957 11.4271 37.4291 11.6272 37.5625L24.4348 44.9002C24.5015 44.9669 24.5015 44.9669 24.5682 44.9669C24.6349 44.9669 24.7016 44.9669 24.7016 44.9669C24.7683 44.9669 24.835 44.9669 24.835 44.9669C24.9017 44.9669 24.9017 44.9669 24.9017 44.9669C24.9017 44.9669 24.9685 44.9669 24.9685 44.9002L37.8428 37.5625C37.9762 37.4291 38.1096 37.2957 38.1096 37.0956V30.0247L44.2466 26.4893C44.4467 26.4226 44.5134 26.2224 44.5134 26.0223V18.6846C44.5134 18.6846 44.5134 18.6179 44.5134 18.5512ZM18.2978 12.014L23.6343 15.0825L18.2978 18.151L12.9613 15.0825L18.2978 12.014ZM24.168 16.0164V29.4243L21.0995 31.2254L18.8315 32.4928V19.0849L24.168 16.0164ZM24.168 43.5661L12.4277 36.762V16.0164L14.6957 17.2838L17.7642 19.0849V33.5601C17.7642 33.6268 17.8309 33.6268 17.8309 33.6268C17.8309 33.6936 17.8309 33.6936 17.8309 33.6936L17.8976 33.7603V33.827C17.9643 33.827 17.9643 33.827 17.9643 33.827C17.9643 33.8937 18.031 33.8937 18.031 33.8937L24.168 37.3624V43.5661ZM24.7016 36.4285L19.3651 33.4267L24.9685 30.2248L31.1721 26.6894L36.5087 29.7579L32.573 31.9592L24.7016 36.4285ZM37.0423 36.762L25.2353 43.5661V37.3624L37.0423 30.6918V36.762ZM37.0423 28.824L34.7743 27.4899L31.7058 25.7555V19.6185L33.9071 20.9526L37.0423 22.687V28.824ZM37.576 21.8198L32.2394 18.6846L37.576 15.6161L42.9125 18.6846L37.576 21.8198ZM38.1096 28.824V22.687L41.2448 20.9526L43.4461 19.6185V25.7555L38.1096 28.824Z" fill="#FB7185"/>
<path d="M14.6957 17.2838L17.7642 19.0849V33.5601C17.7642 33.6268 17.8309 33.6268 17.8309 33.6268V33.6936L17.8976 33.7603V33.827H17.9643C17.9643 33.8937 18.031 33.8937 18.031 33.8937L24.168 37.3624V43.5661L12.4277 36.762V16.0164L14.6957 17.2838ZM37.0423 36.762L25.2353 43.5661V37.3624L37.0423 30.6918V36.762ZM25.4756 37.502V43.1505L36.8027 36.6222V31.1017L25.4756 37.502ZM12.668 36.6241L23.9277 43.1495V37.502L17.9307 34.1124C17.9184 34.1082 17.9041 34.1065 17.8906 34.0997C17.8744 34.0916 17.8574 34.0802 17.8398 34.0665H17.6572V33.8106C17.6294 33.7919 17.5993 33.7677 17.5752 33.7315C17.5399 33.6785 17.5244 33.6183 17.5244 33.5597V19.2218L14.5781 17.4923L12.668 16.4249V36.6241ZM36.5087 29.7579L32.573 31.9592L24.7016 36.4285L19.3651 33.4267L24.9685 30.2248L31.1721 26.6894L36.5087 29.7579ZM25.0869 30.4327L19.8506 33.4249L24.7002 36.1524L32.4541 31.7501H32.4561L36.0215 29.754L31.1709 26.9649L25.0869 30.4327ZM24.168 29.4243L21.0995 31.2254L18.8315 32.4928V19.0849L24.168 16.0164V29.4243ZM19.0713 19.2237V32.0831L20.9824 31.0157L23.9277 29.2862V16.4317L19.0713 19.2237ZM33.9071 20.9526L37.0423 22.687V28.824L34.7743 27.4899L31.7058 25.7555V19.6185L33.9071 20.9526ZM43.4461 25.7555L38.1096 28.824V22.687L41.2448 20.9526L43.4461 19.6185V25.7555ZM41.3691 21.1583L41.3613 21.1632L41.3604 21.1622L38.3496 22.8272V28.4093L43.2061 25.6153V20.044L41.3691 21.1583ZM31.9453 25.6153L34.8926 27.2813L34.8955 27.2833L36.8027 28.4044V22.8282L33.791 21.1622L33.7822 21.1583L31.9453 20.044V25.6153ZM42.9125 18.6846L37.576 21.8198L32.2394 18.6846L37.576 15.6161L42.9125 18.6846ZM32.7168 18.6866L37.5752 21.5411L42.4346 18.6866L37.5752 15.8927L32.7168 18.6866ZM23.6343 15.0825L18.2978 18.151L12.9613 15.0825L18.2978 12.014L23.6343 15.0825ZM13.4424 15.0821L18.2969 17.8731L23.1523 15.0821L18.2969 12.2901L13.4424 15.0821ZM25.4756 28.4112L30.3984 25.6153V18.5509C30.3985 18.4899 30.4153 18.4346 30.4434 18.3878C30.4529 18.3719 30.4651 18.3592 30.4746 18.3478C30.4824 18.3128 30.4945 18.278 30.5156 18.2462C30.5379 18.2128 30.565 18.1884 30.5908 18.17C30.6092 18.1442 30.6336 18.1171 30.667 18.0948C30.6795 18.0865 30.6939 18.0824 30.707 18.0763L30.7578 18.0255L30.7861 18.0099L37.1738 14.3487C37.3139 14.2332 37.4708 14.2423 37.5762 14.2423C37.6082 14.2423 37.677 14.242 37.749 14.254C37.8061 14.2635 37.894 14.2865 37.9727 14.3468L44.3662 18.0099L44.4863 18.0782V18.1173L44.5459 18.1778C44.5468 18.1785 44.5479 18.1791 44.5488 18.1798L44.6865 18.3185V18.3849L44.7539 18.4522V26.0226C44.7539 26.2456 44.6789 26.5661 44.3652 26.6964L44.3662 26.6974L38.3496 30.1632V37.0958C38.3495 37.4108 38.1323 37.6129 38.0127 37.7325L37.9893 37.755L37.9619 37.7706L25.1602 45.0655C25.159 45.0674 25.1594 45.0705 25.1582 45.0724C25.1238 45.1239 25.0788 45.1546 25.042 45.1729C25.0062 45.1908 24.9731 45.1986 24.9512 45.2022C24.9399 45.2041 24.93 45.2056 24.9219 45.2062C24.9177 45.2064 24.9135 45.207 24.9102 45.2071H24.9023H24.5684C24.5532 45.2071 24.4724 45.2118 24.3945 45.1729C24.3579 45.1546 24.3302 45.1323 24.3135 45.1173C24.3048 45.1095 24.2959 45.1006 24.2871 45.0919L11.5078 37.7706L11.501 37.7667L11.4941 37.7618C11.3744 37.682 11.2751 37.5898 11.209 37.4708C11.1419 37.3501 11.1201 37.2233 11.1201 37.0958V14.6427H11.1875V14.5089H11.2539V14.4425H11.4355C11.4531 14.4287 11.4701 14.4174 11.4863 14.4093C11.5002 14.4023 11.5148 14.3998 11.5273 14.3956L17.9043 10.7433C17.9824 10.6845 18.0686 10.6609 18.125 10.6515C18.1972 10.6394 18.2659 10.6397 18.2979 10.6397C18.4033 10.6397 18.5591 10.6324 18.6992 10.7481L25.0391 14.379C25.0655 14.3823 25.1257 14.3942 25.1816 14.4425H25.3418V14.5089H25.4082V14.6895C25.4222 14.7073 25.4332 14.7249 25.4414 14.7413C25.4592 14.777 25.467 14.8102 25.4707 14.8321C25.4726 14.8437 25.474 14.8542 25.4746 14.8624C25.4749 14.8663 25.4755 14.8699 25.4756 14.8731V28.4112ZM11.4271 14.8157C11.4271 14.8157 11.4271 14.8824 11.3604 14.8824V37.0956L11.3633 37.1681C11.3789 37.3292 11.4523 37.4459 11.6272 37.5625L24.4348 44.9002C24.4847 44.9501 24.4973 44.9627 24.5283 44.9659L24.5682 44.9669H24.9017C24.9017 44.9669 24.9393 44.9669 24.958 44.9386L24.9685 44.9002L37.8428 37.5625C37.9594 37.4459 38.076 37.3293 38.1035 37.1681L38.1096 37.0956V30.0247L44.2466 26.4893C44.3965 26.4391 44.4719 26.3139 44.5 26.17L44.5134 26.0223V18.5512C44.4633 18.5011 44.4513 18.4886 44.4482 18.4571L44.4467 18.4178C44.38 18.3511 44.38 18.3511 44.38 18.3511L44.3133 18.2844C44.3133 18.2844 44.2755 18.2844 44.2568 18.256L44.2466 18.2177L37.8428 14.5488C37.8093 14.5154 37.7591 14.4986 37.709 14.4903L37.576 14.4821C37.4425 14.4821 37.3758 14.4821 37.3091 14.5488L30.9053 18.2177L30.8386 18.2844C30.7749 18.2844 30.772 18.3456 30.7719 18.3511C30.7678 18.3512 30.7335 18.3528 30.7158 18.379L30.6943 18.4571C30.6756 18.4883 30.6387 18.5015 30.6385 18.5512V25.7555L25.2353 28.824V14.8824C25.2351 14.8767 25.2318 14.8159 25.1686 14.8157V14.7489C25.1686 14.7489 25.1019 14.7489 25.1019 14.6822H25.0352C25.0352 14.6155 25.0352 14.6155 24.9685 14.6155L18.5646 10.9467C18.5313 10.9135 18.4977 10.8971 18.4561 10.8888L18.2978 10.88C18.2311 10.88 18.0977 10.88 18.031 10.9467L11.6272 14.6155C11.623 14.6156 11.5605 14.6178 11.5605 14.6822H11.4938C11.4938 14.7489 11.4938 14.7489 11.4271 14.7489V14.8157Z" fill="#FB7185"/>
</svg>
