<svg width="514" height="465" viewBox="0 0 514 465" fill="none" xmlns="http://www.w3.org/2000/svg">
<path d="M28.9882 0.0361597C29.7919 0.0317994 30.5957 0.0274391 31.4238 0.0229466C34.11 0.0120211 36.7957 0.0223997 39.4819 0.0327322C41.43 0.0292746 43.3781 0.0245093 45.3262 0.0185505C50.6743 0.00602529 56.0222 0.0122178 61.3703 0.0215091C67.14 0.028293 72.9096 0.0178217 78.6793 0.00956937C89.98 -0.00377717 101.281 -0.000886105 112.581 0.00780729C121.765 0.0145798 130.949 0.0155024 140.132 0.0122358C141.439 0.0117761 142.745 0.0113164 144.091 0.0108428C146.746 0.00988365 149.4 0.00891101 152.054 0.00792504C176.238 -0.000688914 200.423 0.00823595 224.607 0.0239528C246.682 0.0381895 268.756 0.0369156 290.831 0.0225699C315.635 0.00650383 340.439 0.000192445 365.244 0.00940664C367.888 0.0103623 370.533 0.0113054 373.177 0.0122358C375.129 0.0129301 375.129 0.0129301 377.12 0.0136383C386.294 0.0162297 395.467 0.0118542 404.641 0.00479719C415.819 -0.00361271 426.997 -0.00134839 438.175 0.0146394C443.879 0.022529 449.583 0.025602 455.288 0.015692C460.508 0.00675883 465.729 0.0116553 470.95 0.0276246C472.839 0.0309783 474.729 0.0292653 476.618 0.0219972C479.186 0.0128769 481.753 0.0222292 484.321 0.0361597C485.055 0.0291362 485.789 0.0221127 486.545 0.0148764C493.391 0.089119 499.642 1.96158 504.905 6.53868C505.841 7.31599 505.841 7.31599 506.795 8.109C512.858 15.6232 513.231 23.3514 513.163 32.7045C513.167 34.0389 513.174 35.3732 513.182 36.7076C513.198 40.3547 513.19 44.0013 513.178 47.6484C513.169 51.5891 513.183 55.5298 513.194 59.4706C513.211 67.1824 513.208 74.8941 513.196 82.6059C513.187 88.8743 513.186 95.1425 513.19 101.411C513.191 102.304 513.191 103.197 513.192 104.117C513.193 105.931 513.194 107.745 513.196 109.559C513.207 126.559 513.194 143.559 513.173 160.559C513.155 175.141 513.158 189.722 513.176 204.304C513.198 221.246 513.206 238.188 513.194 255.129C513.193 256.936 513.191 258.743 513.19 260.55C513.189 261.439 513.189 262.328 513.188 263.244C513.185 269.504 513.191 275.765 513.2 282.025C513.211 289.655 513.208 297.284 513.187 304.914C513.176 308.806 513.172 312.697 513.185 316.589C513.2 320.809 513.183 325.029 513.163 329.25C513.172 330.477 513.181 331.705 513.19 332.969C513.115 341.139 512.017 346.562 506.506 352.875C505.772 353.506 505.037 354.138 504.28 354.789C503.55 355.436 502.821 356.083 502.069 356.75C497.015 360.234 492.165 360.663 486.138 360.654C485.034 360.657 485.034 360.657 483.907 360.659C481.452 360.663 478.997 360.652 476.542 360.641C474.778 360.64 473.013 360.641 471.249 360.642C466.466 360.642 461.684 360.63 456.901 360.616C451.9 360.604 446.899 360.603 441.899 360.6C432.432 360.594 422.966 360.578 413.499 360.558C402.72 360.535 391.942 360.524 381.163 360.514C358.994 360.493 336.824 360.458 314.655 360.414C316.555 363.816 318.456 367.217 320.358 370.618C321.317 372.333 322.275 374.048 323.233 375.763C329.531 387.04 329.531 387.04 336.219 398.087C338.151 401.287 339.446 404.46 340.7 407.979C343.269 414.447 346.019 420.118 351.655 424.414C362.427 427.954 374.404 426.76 385.574 426.213C390.59 425.99 395.609 425.915 400.628 425.824C404.532 425.752 408.43 425.656 412.331 425.486C413.406 425.447 413.406 425.447 414.503 425.407C416.432 425.336 418.359 425.25 420.287 425.163C424.711 425.492 427.983 426.924 431.299 429.879C436.585 436.543 436.221 443.129 435.655 451.414C434.573 456.026 432.327 459.409 428.655 462.414C425.345 464.449 422.792 464.666 418.935 464.671C417.761 464.677 416.587 464.684 415.377 464.69C414.086 464.687 412.795 464.684 411.465 464.681C410.081 464.685 408.696 464.689 407.312 464.695C403.503 464.707 399.695 464.707 395.887 464.704C391.781 464.704 387.675 464.715 383.569 464.725C375.524 464.741 367.478 464.747 359.432 464.748C352.893 464.749 346.354 464.753 339.815 464.759C321.28 464.777 302.746 464.786 284.212 464.785C283.212 464.784 282.213 464.784 281.183 464.784C280.182 464.784 279.181 464.784 278.15 464.784C261.931 464.783 245.711 464.802 229.492 464.831C212.843 464.859 196.194 464.873 179.546 464.871C170.197 464.871 160.848 464.876 151.498 464.898C143.538 464.916 135.578 464.92 127.618 464.907C123.556 464.9 119.495 464.9 115.433 464.917C111.714 464.933 107.996 464.93 104.277 464.913C102.296 464.908 100.315 464.923 98.3338 464.939C91.5587 464.887 87.1315 464.542 81.6547 460.414C77.657 456.185 77.3601 450.951 77.2172 445.351C77.4195 439.245 77.6819 434.508 82.0844 429.925C86.877 425.693 90.1864 425.303 96.3825 425.589C97.7926 425.649 99.2028 425.707 100.613 425.764C101.734 425.809 101.734 425.809 102.878 425.856C107.697 426.032 112.518 426.104 117.339 426.184C121.565 426.26 125.78 426.379 130.002 426.597C148.144 428.188 148.144 428.188 164.484 422.182C169.199 416.535 171.98 410.177 174.53 403.329C175.994 399.535 177.882 396.329 180.022 392.875C181.192 390.846 182.361 388.818 183.53 386.789C184.115 385.774 184.7 384.76 185.303 383.714C188.506 378.158 191.697 372.595 194.878 367.026C195.243 366.386 195.609 365.746 195.985 365.087C196.875 363.529 197.765 361.971 198.655 360.414C197.283 360.419 197.283 360.419 195.884 360.425C173.625 360.513 151.365 360.579 129.105 360.621C118.34 360.642 107.575 360.67 96.8107 360.715C87.4266 360.755 78.0426 360.781 68.6584 360.79C63.691 360.795 58.7238 360.807 53.7564 360.837C49.077 360.864 44.398 360.872 39.7186 360.866C38.0049 360.867 36.2913 360.875 34.5778 360.891C24.6235 360.975 16.029 361 8.09614 354.23C7.16608 353.114 7.16608 353.114 6.21723 351.976C5.57914 351.235 4.94106 350.494 4.28364 349.73C1.31819 345.513 0.404928 341.904 0.394667 336.782C0.387601 335.653 0.380536 334.524 0.373257 333.361C0.375672 332.126 0.378087 330.89 0.380575 329.617C0.375338 328.301 0.370101 326.985 0.364706 325.629C0.350528 321.977 0.348864 318.325 0.349304 314.673C0.347656 310.733 0.334588 306.794 0.323111 302.854C0.300263 294.24 0.292341 285.627 0.287285 277.013C0.284027 271.633 0.277504 266.254 0.270283 260.874C0.250717 245.976 0.234312 231.077 0.231405 216.179C0.231218 215.226 0.23103 214.273 0.230837 213.29C0.230471 211.358 0.230107 209.425 0.229746 207.492C0.229563 206.533 0.229381 205.574 0.229193 204.585C0.229012 203.625 0.228831 202.664 0.228645 201.675C0.225104 186.114 0.198086 170.552 0.160694 154.991C0.122602 139.011 0.103249 123.03 0.102947 107.049C0.102363 98.078 0.0938831 89.1073 0.064949 80.1364C0.0404223 72.497 0.0331611 64.8578 0.0481968 57.2183C0.0553607 53.3223 0.0545312 49.4267 0.031786 45.5307C0.0111366 41.9594 0.0138502 38.3889 0.0346603 34.8176C0.0397861 32.9234 0.0204226 31.0292 0 29.1351C0.0821652 20.7489 1.62946 13.8688 7.38084 7.50326C13.4931 1.61955 20.7725 -0.0424602 28.9882 0.0361597Z" fill="#DEF5FC"/>
<path d="M28.9882 0.0361597C29.7919 0.0317994 30.5957 0.0274391 31.4238 0.0229466C34.11 0.0120211 36.7957 0.0223997 39.4819 0.0327322C41.43 0.0292746 43.3781 0.0245093 45.3262 0.0185505C50.6743 0.00602529 56.0222 0.0122178 61.3703 0.0215091C67.14 0.028293 72.9096 0.0178217 78.6793 0.00956937C89.98 -0.00377717 101.281 -0.000886105 112.581 0.00780729C121.765 0.0145798 130.949 0.0155024 140.132 0.0122358C141.439 0.0117761 142.745 0.0113164 144.091 0.0108428C146.746 0.00988365 149.4 0.00891101 152.054 0.00792504C176.238 -0.000688914 200.423 0.00823595 224.607 0.0239528C246.682 0.0381895 268.756 0.0369156 290.831 0.0225699C315.635 0.00650383 340.439 0.000192445 365.244 0.00940664C367.888 0.0103623 370.533 0.0113054 373.177 0.0122358C375.129 0.0129301 375.129 0.0129301 377.12 0.0136383C386.294 0.0162297 395.467 0.0118542 404.641 0.00479719C415.819 -0.00361271 426.997 -0.00134839 438.175 0.0146394C443.879 0.022529 449.583 0.025602 455.288 0.015692C460.508 0.00675883 465.729 0.0116553 470.95 0.0276246C472.839 0.0309783 474.729 0.0292653 476.618 0.0219972C479.186 0.0128769 481.753 0.0222292 484.321 0.0361597C485.055 0.0291362 485.789 0.0221127 486.545 0.0148764C493.391 0.089119 499.642 1.96158 504.905 6.53868C505.841 7.31599 505.841 7.31599 506.795 8.109C512.858 15.6232 513.231 23.3514 513.163 32.7045C513.167 34.0389 513.174 35.3732 513.182 36.7076C513.198 40.3547 513.19 44.0013 513.178 47.6484C513.169 51.5891 513.183 55.5298 513.194 59.4706C513.211 67.1824 513.208 74.8941 513.196 82.6059C513.187 88.8743 513.186 95.1425 513.19 101.411C513.191 102.304 513.191 103.197 513.192 104.117C513.193 105.931 513.194 107.745 513.196 109.559C513.207 126.559 513.194 143.559 513.173 160.559C513.155 175.141 513.158 189.722 513.176 204.304C513.198 221.246 513.206 238.188 513.194 255.129C513.193 256.936 513.191 258.743 513.19 260.55C513.189 261.439 513.189 262.328 513.188 263.244C513.185 269.504 513.191 275.765 513.2 282.025C513.211 289.655 513.208 297.284 513.187 304.914C513.176 308.806 513.172 312.697 513.185 316.589C513.2 320.809 513.183 325.029 513.163 329.25C513.172 330.477 513.181 331.705 513.19 332.969C513.115 341.139 512.017 346.562 506.506 352.875C505.772 353.506 505.037 354.138 504.28 354.789C503.55 355.436 502.821 356.083 502.069 356.75C497.015 360.234 492.165 360.663 486.138 360.654C485.034 360.657 485.034 360.657 483.907 360.659C481.452 360.663 478.997 360.652 476.542 360.641C474.778 360.64 473.013 360.641 471.249 360.642C466.466 360.642 461.684 360.63 456.901 360.616C451.9 360.604 446.899 360.603 441.899 360.6C432.432 360.594 422.966 360.578 413.499 360.558C402.72 360.535 391.942 360.524 381.163 360.514C358.994 360.493 336.824 360.458 314.655 360.414C316.555 363.816 318.456 367.217 320.358 370.618C321.317 372.333 322.275 374.048 323.233 375.763C329.531 387.04 329.531 387.04 336.219 398.087C338.151 401.287 339.446 404.46 340.7 407.979C343.269 414.447 346.019 420.118 351.655 424.414C362.427 427.954 374.404 426.76 385.574 426.213C390.59 425.99 395.609 425.915 400.628 425.824C404.532 425.752 408.43 425.656 412.331 425.486C413.406 425.447 413.406 425.447 414.503 425.407C416.432 425.336 418.359 425.25 420.287 425.163C424.711 425.492 427.983 426.924 431.299 429.879C436.585 436.543 436.221 443.129 435.655 451.414C434.573 456.026 432.327 459.409 428.655 462.414C425.345 464.449 422.792 464.666 418.935 464.671C417.761 464.677 416.587 464.684 415.377 464.69C414.086 464.687 412.795 464.684 411.465 464.681C410.081 464.685 408.696 464.689 407.312 464.695C403.503 464.707 399.695 464.707 395.887 464.704C391.781 464.704 387.675 464.715 383.569 464.725C375.524 464.741 367.478 464.747 359.432 464.748C352.893 464.749 346.354 464.753 339.815 464.759C321.28 464.777 302.746 464.786 284.212 464.785C283.212 464.784 282.213 464.784 281.183 464.784C280.182 464.784 279.181 464.784 278.15 464.784C261.931 464.783 245.711 464.802 229.492 464.831C212.843 464.859 196.194 464.873 179.546 464.871C170.197 464.871 160.848 464.876 151.498 464.898C143.538 464.916 135.578 464.92 127.618 464.907C123.556 464.9 119.495 464.9 115.433 464.917C111.714 464.933 107.996 464.93 104.277 464.913C102.296 464.908 100.315 464.923 98.3338 464.939C91.5587 464.887 87.1315 464.542 81.6547 460.414C77.657 456.185 77.3601 450.951 77.2172 445.351C77.4195 439.245 77.6819 434.508 82.0844 429.925C86.877 425.693 90.1864 425.303 96.3825 425.589C97.7926 425.649 99.2028 425.707 100.613 425.764C101.734 425.809 101.734 425.809 102.878 425.856C107.697 426.032 112.518 426.104 117.339 426.184C121.565 426.26 125.78 426.379 130.002 426.597C148.144 428.188 148.144 428.188 164.484 422.182C169.199 416.535 171.98 410.177 174.53 403.329C175.994 399.535 177.882 396.329 180.022 392.875C181.192 390.846 182.361 388.818 183.53 386.789C184.115 385.774 184.7 384.76 185.303 383.714C188.506 378.158 191.697 372.595 194.878 367.026C195.243 366.386 195.609 365.746 195.985 365.087C196.875 363.529 197.765 361.971 198.655 360.414C197.283 360.419 197.283 360.419 195.884 360.425C173.625 360.513 151.365 360.579 129.105 360.621C118.34 360.642 107.575 360.67 96.8107 360.715C87.4266 360.755 78.0426 360.781 68.6584 360.79C63.691 360.795 58.7238 360.807 53.7564 360.837C49.077 360.864 44.398 360.872 39.7186 360.866C38.0049 360.867 36.2913 360.875 34.5778 360.891C24.6235 360.975 16.029 361 8.09614 354.23C7.16608 353.114 7.16608 353.114 6.21723 351.976C5.57914 351.235 4.94106 350.494 4.28364 349.73C1.31819 345.513 0.404928 341.904 0.394667 336.782C0.387601 335.653 0.380536 334.524 0.373257 333.361C0.375672 332.126 0.378087 330.89 0.380575 329.617C0.375338 328.301 0.370101 326.985 0.364706 325.629C0.350528 321.977 0.348864 318.325 0.349304 314.673C0.347656 310.733 0.334588 306.794 0.323111 302.854C0.300263 294.24 0.292341 285.627 0.287285 277.013C0.284027 271.633 0.277504 266.254 0.270283 260.874C0.250717 245.976 0.234312 231.077 0.231405 216.179C0.231218 215.226 0.23103 214.273 0.230837 213.29C0.230471 211.358 0.230107 209.425 0.229746 207.492C0.229563 206.533 0.229381 205.574 0.229193 204.585C0.229012 203.625 0.228831 202.664 0.228645 201.675C0.225104 186.114 0.198086 170.552 0.160694 154.991C0.122602 139.011 0.103249 123.03 0.102947 107.049C0.102363 98.078 0.0938831 89.1073 0.064949 80.1364C0.0404223 72.497 0.0331611 64.8578 0.0481968 57.2183C0.0553607 53.3223 0.0545312 49.4267 0.031786 45.5307C0.0111366 41.9594 0.0138502 38.3889 0.0346603 34.8176C0.0397861 32.9234 0.0204226 31.0292 0 29.1351C0.0821652 20.7489 1.62946 13.8688 7.38084 7.50326C13.4931 1.61955 20.7725 -0.0424602 28.9882 0.0361597ZM225.655 31.4137C225.655 65.7337 225.655 100.054 225.655 135.414C161.635 135.414 97.6147 135.414 31.6547 135.414C31.6135 167.052 31.5722 198.691 31.5297 231.289C31.5115 241.294 31.4933 251.3 31.4746 261.609C31.4679 270.545 31.4679 270.545 31.4638 279.481C31.462 283.474 31.4545 287.467 31.4436 291.46C31.4299 296.546 31.4257 301.631 31.4286 306.716C31.428 308.588 31.424 310.459 31.4163 312.331C31.4064 314.849 31.4087 317.366 31.4142 319.884C31.4084 320.625 31.4026 321.366 31.3966 322.13C31.2958 326.224 31.2958 326.224 33.6547 329.414C36.0942 329.611 38.42 329.681 40.8606 329.665C41.9927 329.67 41.9927 329.67 43.1476 329.674C45.7031 329.682 48.2582 329.675 50.8137 329.668C52.6536 329.67 54.4936 329.673 56.3335 329.677C61.4103 329.685 66.487 329.681 71.5637 329.675C77.0307 329.671 82.4977 329.678 87.9647 329.683C98.6827 329.692 109.401 329.69 120.119 329.684C128.826 329.68 137.533 329.679 146.24 329.681C148.095 329.682 148.095 329.682 149.988 329.682C152.501 329.683 155.013 329.684 157.526 329.684C180.439 329.69 203.352 329.684 226.265 329.673C247.198 329.664 268.13 329.665 289.062 329.674C312.561 329.685 336.06 329.689 359.559 329.683C362.063 329.683 364.566 329.682 367.07 329.681C368.302 329.681 369.534 329.681 370.803 329.68C379.504 329.679 388.206 329.682 396.907 329.686C407.504 329.692 418.101 329.69 428.698 329.68C434.11 329.674 439.522 329.672 444.934 329.679C449.881 329.685 454.827 329.682 459.774 329.671C461.571 329.669 463.368 329.67 465.164 329.675C467.593 329.681 470.021 329.675 472.449 329.665C473.513 329.672 473.513 329.672 474.6 329.68C478.571 329.752 478.571 329.752 481.655 327.414C481.959 325.201 481.959 325.201 481.909 322.6C481.915 321.577 481.921 320.555 481.927 319.501C481.923 318.369 481.919 317.236 481.915 316.07C481.919 314.874 481.923 313.678 481.927 312.445C481.936 309.115 481.935 305.785 481.931 302.454C481.928 298.867 481.937 295.279 481.945 291.691C481.958 284.659 481.959 277.626 481.957 270.594C481.955 264.88 481.957 259.165 481.961 253.451C481.962 252.233 481.962 252.233 481.963 250.991C481.964 249.341 481.966 247.692 481.967 246.042C481.978 230.56 481.975 215.077 481.969 199.595C481.964 185.419 481.975 171.244 481.994 157.068C482.014 142.526 482.022 127.983 482.018 113.441C482.016 105.272 482.019 97.1019 482.033 88.9322C482.045 81.9772 482.046 75.0224 482.034 68.0674C482.028 64.5167 482.027 60.9661 482.039 57.4154C482.052 53.5716 482.042 49.7282 482.029 45.8844C482.036 44.7545 482.044 43.6245 482.051 42.4603C482.044 41.435 482.037 40.4096 482.029 39.3531C482.03 38.0214 482.03 38.0214 482.03 36.6627C481.813 34.3661 481.813 34.3661 480.401 32.628C478.215 31.1079 476.986 31.0406 474.334 31.0445C473.447 31.0386 472.56 31.0326 471.646 31.0264C470.182 31.0395 470.182 31.0395 468.689 31.0529C467.653 31.0504 466.618 31.0478 465.551 31.0452C462.063 31.0402 458.577 31.0567 455.09 31.0731C452.597 31.074 450.103 31.0735 447.61 31.0718C442.235 31.0711 436.859 31.0796 431.483 31.0965C423.71 31.1209 415.938 31.1287 408.165 31.1325C395.555 31.139 382.945 31.159 370.335 31.1874C358.084 31.2149 345.834 31.2361 333.583 31.2489C332.451 31.2501 332.451 31.2501 331.296 31.2513C327.508 31.2552 323.721 31.259 319.934 31.2627C288.508 31.2938 257.081 31.3491 225.655 31.4137Z" fill="#0E7490"/>
<path d="M37.6375 0.0529056C39.3851 0.0515967 41.1326 0.0489687 42.8802 0.0451381C47.6737 0.0384378 52.4669 0.0504196 57.2604 0.0654723C62.4327 0.078435 67.6051 0.074043 72.7775 0.0717655C81.7361 0.0701929 90.6946 0.0796006 99.6532 0.096479C112.606 0.120866 125.558 0.128674 138.511 0.132443C159.526 0.139008 180.541 0.15897 201.556 0.187351C221.969 0.21489 242.383 0.236124 262.796 0.248874C264.055 0.249662 265.313 0.250451 266.61 0.251263C272.923 0.255178 279.236 0.258969 285.549 0.262698C337.918 0.293795 390.286 0.346855 442.655 0.413669C442.655 10.6437 442.655 20.8737 442.655 31.4137C371.045 31.4137 299.435 31.4137 225.655 31.4137C225.655 65.7337 225.655 100.054 225.655 135.414C161.635 135.414 97.6147 135.414 31.6547 135.414C31.6547 197.784 31.6547 260.154 31.6547 324.414C31.3247 324.414 30.9947 324.414 30.6547 324.414C30.6547 312.204 30.6547 299.994 30.6547 287.414C20.7547 287.414 10.8547 287.414 0.654713 287.414C0.541624 253.442 0.452135 219.471 0.399387 185.499C0.393134 181.487 0.386661 177.474 0.380054 173.461C0.378743 172.662 0.377431 171.863 0.37608 171.04C0.354337 158.114 0.314921 145.188 0.268948 132.261C0.222151 118.993 0.194409 105.724 0.184269 92.4554C0.177417 84.2712 0.155795 76.0873 0.115131 67.9033C0.0886528 62.2872 0.0807214 56.6713 0.087204 51.0552C0.090399 47.8173 0.0828321 44.5801 0.0586853 41.3423C0.0337403 37.8246 0.0398145 34.3083 0.0534401 30.7905C0.0388759 29.7769 0.0243134 28.7632 0.00930786 27.7189C0.0903533 19.9568 2.10325 13.3607 7.38088 7.49522C15.999 -0.75741 26.5215 -0.00886714 37.6375 0.0529056Z" fill="#2A9BAE"/>
<path d="M31.6547 135.414C95.6747 135.414 159.695 135.414 225.655 135.414C225.655 199.434 225.655 263.454 225.655 329.414C194.016 329.455 162.377 329.496 129.78 329.539C119.774 329.557 109.769 329.575 99.4599 329.594C87.2814 329.603 87.2814 329.603 81.5878 329.605C77.5945 329.606 73.6013 329.614 69.6081 329.625C64.5228 329.639 59.4375 329.643 54.3522 329.64C52.4807 329.64 50.6092 329.644 48.7377 329.652C46.2198 329.662 43.7022 329.66 41.1843 329.654C40.4433 329.66 39.7022 329.666 38.9388 329.672C33.883 329.642 33.883 329.642 31.6547 327.414C31.4616 324.868 31.3942 322.431 31.4142 319.884C31.4125 319.1 31.4108 318.316 31.409 317.509C31.4057 314.86 31.4168 312.211 31.4277 309.562C31.4283 307.639 31.428 305.716 31.4269 303.794C31.4265 298.631 31.4381 293.468 31.4522 288.305C31.4635 283.466 31.4641 278.626 31.4655 273.787C31.476 259.621 31.5039 245.455 31.5297 231.289C31.571 199.65 31.6122 168.011 31.6547 135.414Z" fill="#FEFEFE"/>
<path d="M225.655 31.4137C257.834 31.3453 290.014 31.2922 322.194 31.2605C325.99 31.2568 329.787 31.2529 333.583 31.2489C334.717 31.2478 334.717 31.2478 335.874 31.2466C348.122 31.2335 360.371 31.2098 372.62 31.1823C385.182 31.1542 397.745 31.1376 410.307 31.1315C418.063 31.1273 425.818 31.1143 433.574 31.09C439.515 31.0723 445.455 31.0704 451.396 31.0744C453.838 31.0736 456.279 31.0676 458.721 31.0561C462.044 31.0413 465.366 31.0447 468.689 31.053C469.665 31.0442 470.64 31.0355 471.646 31.0265C472.533 31.0325 473.42 31.0384 474.334 31.0446C475.102 31.0435 475.869 31.0423 476.66 31.0411C479.275 31.5295 480.131 32.2433 481.655 34.4137C482.03 36.6628 482.03 36.6628 482.029 39.3532C482.037 40.3786 482.044 41.4039 482.051 42.4604C482.044 43.5903 482.037 44.7203 482.029 45.8845C482.033 47.0821 482.037 48.2797 482.041 49.5136C482.049 52.8438 482.043 56.1735 482.032 59.5037C482.023 63.0927 482.032 66.6816 482.038 70.2706C482.048 77.3035 482.041 84.3362 482.029 91.3691C482.015 99.5528 482.017 107.737 482.019 115.92C482.022 130.518 482.01 145.116 481.991 159.713C481.972 173.89 481.965 188.067 481.97 202.245C481.976 217.67 481.976 233.095 481.965 248.521C481.964 250.164 481.963 251.808 481.961 253.451C481.96 254.665 481.96 254.665 481.959 255.902C481.956 261.612 481.956 267.322 481.958 273.032C481.96 279.985 481.955 286.939 481.94 293.893C481.933 297.444 481.929 300.994 481.934 304.545C481.938 308.387 481.928 312.228 481.915 316.07C481.919 317.202 481.923 318.334 481.927 319.501C481.921 320.524 481.915 321.546 481.909 322.6C481.908 323.488 481.907 324.375 481.907 325.29C481.655 327.414 481.655 327.414 479.655 329.414C477.778 329.662 477.778 329.662 475.442 329.66C474.553 329.664 473.664 329.668 472.749 329.672C471.275 329.663 471.275 329.663 469.771 329.654C468.213 329.657 468.213 329.657 466.623 329.659C463.119 329.663 459.615 329.652 456.111 329.641C453.609 329.64 451.106 329.641 448.603 329.642C443.203 329.642 437.803 329.636 432.404 329.625C424.596 329.609 416.789 329.604 408.981 329.601C396.315 329.597 383.649 329.584 370.983 329.565C358.677 329.546 346.371 329.532 334.065 329.524C333.307 329.523 332.549 329.523 331.768 329.522C327.964 329.519 324.161 329.517 320.358 329.514C288.79 329.494 257.222 329.458 225.655 329.414C225.655 315.554 225.655 301.694 225.655 287.414C231.955 287.394 238.254 287.374 244.745 287.354C265.528 287.287 286.311 287.209 307.094 287.126C319.699 287.076 332.303 287.03 344.908 286.992C355.893 286.959 366.877 286.919 377.862 286.871C383.68 286.846 389.497 286.824 395.314 286.81C400.789 286.798 406.264 286.775 411.738 286.746C413.748 286.737 415.758 286.732 417.768 286.73C420.512 286.726 423.255 286.711 425.999 286.692C427.192 286.695 427.192 286.695 428.41 286.698C432.829 286.653 436.57 286.309 440.655 284.414C441.76 281.098 441.976 278.21 442.217 274.726C442.301 273.547 442.385 272.367 442.471 271.152C442.532 270.248 442.592 269.345 442.655 268.414C441.717 268.418 441.717 268.418 440.761 268.422C425.554 268.488 410.348 268.538 395.141 268.569C387.788 268.585 380.434 268.606 373.081 268.64C366.671 268.67 360.262 268.689 353.853 268.696C350.459 268.7 347.065 268.709 343.672 268.731C339.884 268.753 336.096 268.756 332.308 268.754C330.618 268.77 330.618 268.77 328.895 268.787C327.863 268.783 326.831 268.779 325.767 268.774C324.423 268.779 324.423 268.779 323.052 268.783C320.107 268.329 318.751 267.519 316.655 265.414C315.873 259.943 315.873 259.943 316.655 257.414C318.85 254.888 320.665 253.567 324.009 253.05C327.051 252.913 330.069 252.908 333.114 252.944C334.852 252.94 334.852 252.94 336.624 252.937C340.451 252.935 344.277 252.961 348.104 252.988C350.76 252.993 353.416 252.996 356.072 252.998C361.636 253.004 367.2 253.026 372.764 253.057C379.91 253.097 387.056 253.115 394.202 253.124C401.003 253.134 407.803 253.154 414.604 253.175C416.561 253.181 416.561 253.181 418.558 253.186C422.233 253.197 425.908 253.216 429.583 253.237C430.681 253.239 431.779 253.242 432.91 253.245C433.906 253.252 434.903 253.259 435.93 253.267C436.799 253.271 437.669 253.275 438.564 253.28C440.655 253.414 440.655 253.414 442.655 254.414C442.655 244.184 442.655 233.954 442.655 223.414C439.741 223.472 436.828 223.53 433.827 223.59C431.004 223.629 428.181 223.659 425.357 223.688C423.396 223.714 421.435 223.748 419.474 223.791C416.654 223.852 413.835 223.88 411.014 223.902C410.138 223.928 409.262 223.954 408.359 223.98C402.276 223.983 402.276 223.983 399.101 221.075C397.336 217.827 397.035 216.057 397.655 212.414C399.101 210.255 399.101 210.255 401.655 208.414C404.778 207.859 407.85 207.949 411.014 208.023C411.918 208.029 412.823 208.034 413.755 208.04C416.639 208.063 419.521 208.113 422.405 208.164C424.362 208.184 426.319 208.202 428.276 208.218C433.07 208.259 437.861 208.337 442.655 208.414C442.655 198.184 442.655 187.954 442.655 177.414C441.995 177.744 441.335 178.074 440.655 178.414C438.447 178.515 436.236 178.549 434.025 178.554C432.992 178.559 432.992 178.559 431.937 178.563C429.617 178.572 427.297 178.573 424.977 178.575C423.319 178.579 421.66 178.585 420.001 178.59C415.487 178.603 410.972 178.609 406.458 178.614C403.639 178.617 400.821 178.621 398.002 178.625C389.189 178.639 380.376 178.649 371.563 178.653C361.379 178.657 351.195 178.675 341.011 178.704C333.146 178.725 325.281 178.735 317.416 178.737C312.716 178.738 308.015 178.744 303.315 178.761C298.894 178.778 294.473 178.78 290.052 178.771C288.429 178.771 286.805 178.775 285.181 178.785C282.967 178.797 280.753 178.792 278.538 178.781C277.298 178.783 276.058 178.784 274.781 178.786C271.415 178.385 270.041 177.77 267.655 175.414C266.905 173.511 266.905 173.511 266.655 171.476C266.552 170.807 266.448 170.138 266.342 169.449C266.82 166.338 268.209 165.336 270.655 163.414C273.849 162.922 273.849 162.922 277.703 162.933C278.413 162.929 279.123 162.926 279.855 162.922C282.233 162.916 284.611 162.938 286.99 162.96C288.695 162.961 290.4 162.96 292.105 162.958C296.735 162.957 301.364 162.98 305.994 163.008C310.832 163.033 315.67 163.036 320.508 163.04C329.67 163.053 338.832 163.086 347.994 163.126C358.424 163.17 368.855 163.192 379.285 163.212C400.742 163.254 422.198 163.325 443.655 163.414C443.655 153.184 443.655 142.954 443.655 132.414C440.434 132.435 437.214 132.456 433.896 132.477C423.267 132.543 412.638 132.588 402.009 132.621C395.563 132.642 389.117 132.67 382.672 132.715C376.454 132.759 370.236 132.783 364.018 132.793C361.643 132.801 359.268 132.815 356.894 132.837C353.573 132.866 350.252 132.87 346.931 132.868C345.945 132.882 344.959 132.897 343.943 132.911C337.301 132.871 337.301 132.871 334.048 130.569C332.105 127.563 332.009 125.927 332.655 122.414C334.672 119.611 336.278 117.71 339.754 116.962C342.397 116.79 344.997 116.784 347.646 116.83C348.648 116.828 349.65 116.826 350.682 116.823C353.99 116.822 357.296 116.856 360.604 116.89C362.901 116.897 365.199 116.902 367.496 116.905C372.307 116.915 377.118 116.942 381.928 116.982C388.106 117.033 394.283 117.058 400.461 117.073C406.342 117.087 412.223 117.113 418.104 117.14C419.232 117.145 420.359 117.15 421.521 117.155C424.698 117.171 427.875 117.195 431.052 117.221C432 117.225 432.948 117.229 433.925 117.234C435.218 117.247 435.218 117.247 436.538 117.26C437.289 117.265 438.04 117.271 438.814 117.277C440.655 117.414 440.655 117.414 442.655 118.414C442.655 108.184 442.655 97.9537 442.655 87.4137C440.524 87.4248 438.392 87.4359 436.197 87.4474C416.14 87.5495 396.084 87.6239 376.027 87.6728C365.715 87.6986 355.403 87.7338 345.091 87.7909C336.104 87.8407 327.117 87.873 318.13 87.8842C313.37 87.8907 308.611 87.906 303.852 87.9424C299.373 87.9763 294.894 87.9868 290.415 87.9793C288.771 87.9807 287.126 87.9906 285.482 88.0098C283.237 88.0346 280.993 88.0287 278.748 88.015C276.863 88.0219 276.863 88.0219 274.941 88.029C270.735 87.2416 269.229 85.7728 266.655 82.4137C266.591 78.6965 266.644 76.4599 269.285 73.7253C272.518 71.936 274.938 72.0449 278.628 72.053C279.329 72.0504 280.031 72.0478 280.754 72.0452C283.105 72.0403 285.455 72.0568 287.806 72.0732C289.491 72.074 291.177 72.0735 292.862 72.0718C297.438 72.071 302.014 72.0886 306.59 72.1096C311.372 72.1283 316.154 72.1301 320.936 72.1336C329.992 72.143 339.047 72.1676 348.103 72.1977C358.413 72.2312 368.722 72.2477 379.032 72.2628C400.239 72.2941 421.447 72.3492 442.655 72.4137C442.655 59.2137 442.655 46.0137 442.655 32.4137C371.045 32.4137 299.435 32.4137 225.655 32.4137C225.655 32.0837 225.655 31.7537 225.655 31.4137Z" fill="#C8EEFD"/>
<path d="M42.2666 31.053C43.0491 31.0504 43.8316 31.0478 44.6379 31.0452C47.2683 31.0402 49.8981 31.0568 52.5285 31.0731C54.4107 31.074 56.2929 31.0735 58.1751 31.0718C63.2926 31.0709 68.4099 31.0886 73.5274 31.1095C78.8725 31.1283 84.2177 31.13 89.5629 31.1336C99.6882 31.1429 109.814 31.1676 119.939 31.1977C133.619 31.2374 147.299 31.2536 160.979 31.2712C182.537 31.2994 204.096 31.3592 225.655 31.4137C225.655 65.7337 225.655 100.054 225.655 135.414C161.635 135.414 97.6147 135.414 31.6547 135.414C31.5928 118.811 31.531 102.207 31.4672 85.1012C31.4399 79.8556 31.4126 74.61 31.3845 69.2055C31.3709 62.8079 31.3709 62.8079 31.3684 59.8144C31.3638 57.7204 31.3532 55.6263 31.338 53.5323C31.3161 50.3633 31.313 47.1948 31.3141 44.0258C31.3033 43.0904 31.2926 42.155 31.2814 41.1912C31.2856 40.339 31.2897 39.4868 31.294 38.6088C31.2912 37.8668 31.2884 37.1247 31.2856 36.3602C31.6547 34.4137 31.6547 34.4137 32.7015 32.6741C35.7175 30.7279 38.7932 31.0116 42.2666 31.053Z" fill="#FD6470"/>
<path d="M95.2233 425.282C96.389 425.278 97.5548 425.275 98.7558 425.271C100.043 425.272 101.329 425.272 102.655 425.273C104.031 425.271 105.407 425.268 106.783 425.264C110.573 425.256 114.363 425.254 118.152 425.254C122.236 425.252 126.32 425.244 130.404 425.238C139.338 425.224 148.272 425.218 157.206 425.214C162.782 425.211 168.358 425.207 173.935 425.202C189.368 425.19 204.801 425.18 220.235 425.176C221.223 425.176 222.211 425.176 223.229 425.176C224.219 425.175 225.21 425.175 226.23 425.175C228.237 425.174 230.245 425.174 232.252 425.174C233.247 425.173 234.243 425.173 235.269 425.173C251.405 425.169 267.541 425.151 283.677 425.128C300.237 425.104 316.796 425.092 333.355 425.091C342.656 425.09 351.956 425.084 361.257 425.066C369.175 425.051 377.094 425.045 385.013 425.054C389.054 425.058 393.095 425.057 397.136 425.043C400.836 425.03 404.535 425.031 408.234 425.043C410.207 425.046 412.18 425.034 414.152 425.022C420.903 425.06 426.032 425.187 431.299 429.879C436.585 436.543 436.221 443.129 435.655 451.414C434.573 456.026 432.327 459.409 428.655 462.414C425.345 464.449 422.792 464.666 418.935 464.671C417.761 464.677 416.587 464.684 415.377 464.691C414.086 464.687 412.795 464.684 411.465 464.681C410.081 464.685 408.696 464.69 407.312 464.695C403.503 464.707 399.695 464.707 395.887 464.705C391.781 464.704 387.675 464.715 383.569 464.725C375.524 464.741 367.478 464.747 359.432 464.748C352.893 464.749 346.354 464.753 339.815 464.759C321.28 464.777 302.746 464.786 284.212 464.785C283.212 464.785 282.213 464.784 281.183 464.784C280.182 464.784 279.181 464.784 278.15 464.784C261.931 464.783 245.711 464.802 229.492 464.831C212.843 464.859 196.194 464.873 179.546 464.871C170.197 464.871 160.848 464.876 151.498 464.898C143.538 464.916 135.578 464.92 127.618 464.907C123.556 464.9 119.495 464.9 115.433 464.917C111.714 464.933 107.996 464.93 104.277 464.913C102.296 464.908 100.315 464.924 98.3338 464.939C91.5587 464.887 87.1315 464.542 81.6547 460.414C77.657 456.186 77.36 450.951 77.2172 445.351C77.4195 439.245 77.6819 434.508 82.0844 429.925C86.402 426.113 89.6183 425.289 95.2233 425.282Z" fill="#0891B2"/>
<path d="M198.655 360.414C236.935 360.414 275.215 360.414 314.655 360.414C319.275 368.664 323.895 376.914 328.655 385.414C332.517 392.042 336.405 398.652 340.343 405.236C341.556 407.265 342.767 409.294 343.977 411.325C345.161 413.313 346.349 415.299 347.542 417.282C348.077 418.18 348.611 419.078 349.163 420.004C349.884 421.208 349.884 421.208 350.62 422.437C351.655 424.414 351.655 424.414 351.655 426.414C288.955 426.414 226.255 426.414 161.655 426.414C163.2 422.55 164.767 419.289 166.823 415.714C167.462 414.6 168.101 413.485 168.759 412.336C169.453 411.133 170.148 409.93 170.842 408.726C171.556 407.483 172.27 406.24 172.984 404.997C174.834 401.776 176.689 398.557 178.545 395.339C179.634 393.45 180.723 391.56 181.811 389.671C185.562 383.161 189.317 376.654 193.078 370.151C194.945 366.91 196.799 363.661 198.655 360.414Z" fill="#66C2CC"/>
<path d="M31.6547 287.414C95.6747 287.414 159.695 287.414 225.655 287.414C225.655 301.274 225.655 315.134 225.655 329.414C200.656 329.459 175.656 329.496 150.657 329.517C139.05 329.528 127.444 329.542 115.837 329.565C105.724 329.584 95.6105 329.597 85.4972 329.602C80.1394 329.604 74.7816 329.611 69.4238 329.625C64.3859 329.639 59.348 329.643 54.31 329.64C52.4564 329.64 50.6028 329.644 48.7492 329.652C46.2275 329.662 43.706 329.66 41.1843 329.654C40.0724 329.663 40.0724 329.663 38.9381 329.672C33.883 329.642 33.883 329.642 31.6547 327.414C31.6547 314.214 31.6547 301.014 31.6547 287.414Z" fill="#F2EFF2"/>
<path d="M75.3991 245.16C76.3749 245.154 77.3508 245.148 78.3562 245.143C79.96 245.149 79.96 245.149 81.5961 245.155C83.2867 245.15 83.2867 245.15 85.0114 245.144C88.7467 245.135 92.4819 245.141 96.2172 245.148C98.8065 245.147 101.396 245.145 103.985 245.142C109.416 245.139 114.846 245.143 120.277 245.153C126.556 245.164 132.836 245.16 139.116 245.149C145.155 245.139 151.194 245.14 157.234 245.146C159.805 245.147 162.376 245.146 164.947 245.141C168.536 245.136 172.124 245.144 175.713 245.155C176.783 245.151 177.852 245.147 178.953 245.143C179.929 245.148 180.905 245.154 181.91 245.16C183.183 245.161 183.183 245.161 184.482 245.162C186.655 245.414 186.655 245.414 189.655 247.414C190.043 249.904 190.043 249.904 190.053 253.007C190.057 254.12 190.061 255.232 190.065 256.379C190.053 257.545 190.042 258.712 190.03 259.914C190.041 261.08 190.053 262.247 190.065 263.449C190.061 264.561 190.057 265.674 190.053 266.82C190.05 267.844 190.046 268.868 190.043 269.923C189.851 271.156 189.851 271.156 189.655 272.414C186.428 274.565 185.581 274.664 181.866 274.668C180.88 274.673 179.894 274.679 178.879 274.685C177.799 274.681 176.718 274.677 175.606 274.672C174.467 274.676 173.329 274.68 172.156 274.683C168.383 274.692 164.611 274.686 160.838 274.679C158.224 274.681 155.61 274.683 152.996 274.685C147.514 274.689 142.032 274.684 136.55 274.674C130.208 274.664 123.866 274.667 117.524 274.678C111.427 274.688 105.33 274.687 99.233 274.681C96.6361 274.68 94.0393 274.682 91.4424 274.686C87.8197 274.691 84.1971 274.684 80.5744 274.672C79.4923 274.677 78.4101 274.681 77.2952 274.685C76.3123 274.679 75.3295 274.673 74.3168 274.668C73.0312 274.667 73.0312 274.667 71.7197 274.665C69.6547 274.414 69.6547 274.414 67.6547 272.414C67.1972 268.265 67.3307 264.085 67.3422 259.914C67.3261 258.747 67.31 257.581 67.2934 256.379C67.2928 255.266 67.2921 254.154 67.2914 253.007C67.2885 251.983 67.2855 250.959 67.2824 249.904C67.4053 249.082 67.5281 248.26 67.6547 247.414C70.8708 245.27 71.7007 245.163 75.3991 245.16Z" fill="#FE646F"/>
<path d="M82.1547 154.851C85.6547 155.414 85.6547 155.414 87.849 156.755C90.765 161.049 90.1453 165.457 90.0453 170.523C90.0413 171.482 90.0373 172.442 90.0331 173.43C90.0122 177.008 89.9564 180.586 89.9047 184.164C89.8222 192.166 89.7397 200.169 89.6547 208.414C115.395 208.414 141.135 208.414 167.655 208.414C167.496 192.468 167.496 192.468 167.294 176.522C167.283 174.522 167.272 172.523 167.264 170.523C167.244 169.486 167.223 168.448 167.202 167.379C167.199 160.073 167.199 160.073 169.496 156.755C172.512 154.881 174.165 154.773 177.655 155.414C180.616 157.471 182.405 159.088 183.09 162.722C183.234 165.628 183.216 168.493 183.143 171.402C183.136 172.46 183.129 173.519 183.122 174.609C183.094 177.982 183.031 181.354 182.967 184.726C182.942 187.016 182.919 189.306 182.899 191.595C182.844 197.202 182.76 202.808 182.655 208.414C183.913 208.381 185.171 208.349 186.467 208.316C189.673 208.234 190.673 208.423 193.655 209.976C195.655 212.414 195.655 212.414 196.28 215.914C195.655 219.414 195.655 219.414 193.864 221.6C188.935 224.385 184.246 223.971 178.676 223.931C177.462 223.938 176.249 223.945 174.999 223.953C171.678 223.967 168.359 223.964 165.038 223.951C161.561 223.941 158.083 223.95 154.606 223.957C148.768 223.964 142.93 223.954 137.091 223.935C130.344 223.913 123.596 223.92 116.848 223.942C111.051 223.961 105.254 223.963 99.4568 223.953C95.9959 223.946 92.5352 223.946 89.0743 223.959C85.2174 223.973 81.361 223.954 77.5041 223.931C76.3575 223.939 75.2109 223.947 74.0295 223.956C72.9795 223.945 71.9294 223.933 70.8476 223.922C69.936 223.92 69.0243 223.919 68.0851 223.917C64.858 223.249 63.6599 221.983 61.6547 219.414C61.1014 215.541 61.0914 213.369 63.0922 209.976C65.9453 208.237 67.0576 208.243 70.3149 208.316C71.1271 208.33 71.9392 208.344 72.776 208.359C73.396 208.377 74.016 208.395 74.6547 208.414C74.6458 207.823 74.6369 207.233 74.6278 206.625C74.5392 200.477 74.4789 194.329 74.435 188.181C74.4149 185.887 74.3876 183.593 74.3529 181.299C74.3044 178 74.2817 174.701 74.2641 171.402C74.2434 170.378 74.2228 169.354 74.2015 168.299C74.2001 163.868 74.2252 161.163 76.4604 157.262C78.6547 155.414 78.6547 155.414 82.1547 154.851Z" fill="#99E6FC"/>
<path d="M270.655 360.414C285.175 360.414 299.695 360.414 314.655 360.414C316.758 364.188 318.862 367.962 321.03 371.851C327.307 383.079 333.74 394.197 340.343 405.236C341.556 407.265 342.767 409.294 343.977 411.325C345.161 413.313 346.349 415.299 347.542 417.282C348.077 418.18 348.611 419.078 349.163 420.004C349.884 421.208 349.884 421.208 350.62 422.437C351.655 424.414 351.655 424.414 351.655 426.414C288.955 426.414 226.255 426.414 161.655 426.414C161.655 426.084 161.655 425.754 161.655 425.414C209.505 425.084 257.355 424.754 306.655 424.414C293.72 401.75 293.72 401.75 280.645 379.168C280.057 378.153 279.468 377.139 278.862 376.093C278.361 375.235 277.861 374.376 277.345 373.491C274.988 369.2 272.845 364.793 270.655 360.414Z" fill="#2CB3C7"/>
<path d="M278.556 72.0193C279.597 72.0101 279.597 72.0101 280.659 72.0008C282.985 71.9842 285.309 71.989 287.635 71.9938C289.302 71.9864 290.97 71.9778 292.637 71.9681C297.166 71.9459 301.695 71.943 306.224 71.9448C310.004 71.945 313.783 71.9364 317.563 71.9281C326.48 71.9088 335.397 71.906 344.314 71.9127C353.515 71.9194 362.716 71.8965 371.917 71.8594C379.815 71.8287 387.713 71.8173 395.611 71.8212C400.329 71.8233 405.047 71.8178 409.765 71.7933C414.202 71.7711 418.638 71.7729 423.074 71.7933C424.702 71.7967 426.331 71.7916 427.959 71.7773C430.182 71.7591 432.403 71.7718 434.626 71.7922C436.492 71.7912 436.492 71.7912 438.396 71.7901C442.577 72.5902 444.089 74.0742 446.655 77.4137C446.717 81.0387 446.717 81.0387 445.655 84.4137C443.297 86.8456 441.911 87.3824 438.522 87.7968C437.278 87.8005 436.035 87.8043 434.753 87.8081C434.059 87.8142 433.365 87.8203 432.65 87.8266C430.325 87.8432 428 87.8384 425.674 87.8336C424.007 87.841 422.34 87.8495 420.672 87.8593C416.144 87.8815 411.615 87.8844 407.086 87.8825C403.306 87.8824 399.526 87.891 395.746 87.8993C386.829 87.9185 377.913 87.9214 368.996 87.9147C359.795 87.908 350.594 87.9309 341.393 87.968C333.494 87.9987 325.596 88.01 317.698 88.0061C312.98 88.0041 308.262 88.0096 303.544 88.034C299.108 88.0563 294.672 88.0545 290.235 88.0341C288.607 88.0307 286.979 88.0358 285.351 88.0501C283.127 88.0682 280.906 88.0556 278.683 88.0352C277.439 88.0359 276.195 88.0366 274.914 88.0373C270.732 87.2372 269.22 85.7532 266.655 82.4137C266.592 78.7887 266.592 78.7887 267.655 75.4137C270.985 71.9788 273.911 72.0332 278.556 72.0193Z" fill="#99E6FC"/>
<path d="M277.594 162.906C278.292 162.9 278.99 162.893 279.71 162.887C282.049 162.871 284.387 162.884 286.727 162.896C288.404 162.891 290.081 162.884 291.758 162.875C296.314 162.857 300.87 162.864 305.426 162.876C310.192 162.887 314.958 162.877 319.724 162.871C327.73 162.864 335.735 162.873 343.741 162.892C352.997 162.914 362.252 162.907 371.508 162.885C379.453 162.867 387.397 162.864 395.342 162.875C400.088 162.881 404.834 162.882 409.58 162.869C414.043 162.857 418.505 162.865 422.968 162.888C424.606 162.893 426.243 162.892 427.881 162.883C430.118 162.872 432.352 162.886 434.589 162.906C435.84 162.907 437.091 162.909 438.38 162.91C442.263 163.507 443.938 164.616 446.655 167.414C447.217 170.414 447.217 170.414 446.655 173.414C444.788 175.716 443.298 177.092 440.655 178.414C438.447 178.515 436.236 178.549 434.025 178.554C433.336 178.557 432.647 178.56 431.937 178.563C429.617 178.572 427.297 178.573 424.977 178.575C423.319 178.579 421.66 178.584 420.001 178.59C415.487 178.603 410.972 178.609 406.458 178.614C403.639 178.617 400.821 178.621 398.002 178.625C389.189 178.639 380.376 178.649 371.563 178.653C361.379 178.657 351.195 178.675 341.011 178.704C333.146 178.725 325.281 178.735 317.416 178.737C312.716 178.738 308.015 178.744 303.315 178.761C298.894 178.778 294.473 178.78 290.052 178.771C288.429 178.771 286.805 178.775 285.181 178.785C282.967 178.797 280.753 178.792 278.538 178.781C277.298 178.783 276.058 178.784 274.781 178.786C271.415 178.385 270.041 177.77 267.655 175.414C266.905 173.511 266.905 173.511 266.655 171.476C266.552 170.807 266.448 170.138 266.342 169.449C267.279 163.347 272.386 162.912 277.594 162.906Z" fill="#9AE6FC"/>
<path d="M377.655 425.414C384.096 425.345 390.537 425.285 396.978 425.249C399.169 425.234 401.359 425.213 403.549 425.187C406.701 425.151 409.854 425.134 413.006 425.121C413.982 425.105 414.957 425.09 415.962 425.074C422.046 425.072 426.566 425.662 431.299 429.879C436.585 436.543 436.221 443.129 435.655 451.414C434.573 456.026 432.327 459.409 428.655 462.414C425.614 464.226 423.411 464.66 419.886 464.641C418.945 464.641 418.005 464.64 417.036 464.64C415.525 464.625 415.525 464.625 413.983 464.609C412.945 464.606 411.908 464.603 410.839 464.6C407.527 464.589 404.216 464.564 400.905 464.539C398.659 464.529 396.413 464.52 394.166 464.511C388.662 464.491 383.159 464.452 377.655 464.414C377.655 451.544 377.655 438.674 377.655 425.414Z" fill="#0E7490"/>
<path d="M333.083 252.928C334.238 252.924 335.393 252.92 336.583 252.916C340.4 252.909 344.216 252.93 348.034 252.953C350.685 252.955 353.336 252.956 355.988 252.956C361.543 252.957 367.099 252.975 372.655 253.002C379.075 253.034 385.495 253.044 391.916 253.043C398.098 253.041 404.279 253.052 410.46 253.068C413.089 253.075 415.718 253.079 418.346 253.08C422.016 253.084 425.686 253.102 429.356 253.123C430.447 253.122 431.537 253.121 432.661 253.12C434.16 253.133 434.16 253.133 435.69 253.146C436.557 253.15 437.424 253.153 438.318 253.156C440.904 253.441 442.473 254.006 444.655 255.414C446.655 258.414 446.655 258.414 446.53 261.914C445.655 265.414 445.655 265.414 443.916 267.109C441.248 268.649 439.673 268.791 436.607 268.795C435.08 268.807 435.08 268.807 433.523 268.82C432.412 268.814 431.301 268.808 430.157 268.802C428.982 268.807 427.808 268.812 426.598 268.818C423.381 268.829 420.164 268.826 416.948 268.817C413.579 268.809 410.211 268.816 406.843 268.821C401.188 268.826 395.532 268.819 389.876 268.805C383.339 268.789 376.802 268.794 370.265 268.81C364.65 268.824 359.036 268.826 353.421 268.818C350.069 268.813 346.717 268.813 343.364 268.823C339.627 268.83 335.89 268.819 332.153 268.802C331.042 268.808 329.931 268.814 328.787 268.82C327.769 268.812 326.751 268.803 325.702 268.795C324.377 268.793 324.377 268.793 323.025 268.791C320.102 268.326 318.74 267.502 316.655 265.414C315.873 259.943 315.873 259.943 316.655 257.414C321.255 252.128 326.593 252.861 333.083 252.928Z" fill="#9AE6FC"/>
<path d="M128.655 245.414C136.158 245.372 143.662 245.332 151.165 245.31C154.66 245.3 158.154 245.286 161.648 245.263C165.657 245.237 169.665 245.227 173.674 245.218C174.927 245.208 176.181 245.198 177.472 245.187C179.213 245.187 179.213 245.187 180.99 245.187C182.014 245.182 183.037 245.178 184.092 245.173C186.655 245.414 186.655 245.414 189.655 247.414C190.043 249.904 190.043 249.904 190.053 253.007C190.059 254.676 190.059 254.676 190.065 256.379C190.053 257.545 190.042 258.712 190.03 259.914C190.041 261.08 190.053 262.247 190.065 263.449C190.061 264.561 190.057 265.674 190.053 266.82C190.05 267.844 190.046 268.868 190.043 269.923C189.915 270.745 189.787 271.567 189.655 272.414C186.228 274.698 185.015 274.658 180.99 274.641C179.829 274.641 178.668 274.64 177.472 274.64C176.219 274.63 174.965 274.62 173.674 274.609C172.391 274.606 171.108 274.603 169.786 274.6C166.378 274.593 162.97 274.573 159.562 274.551C156.083 274.531 152.604 274.521 149.125 274.511C142.302 274.491 135.478 274.452 128.655 274.414C128.655 264.844 128.655 255.274 128.655 245.414Z" fill="#FFC345"/>
<path d="M281.576 207.994C282.583 207.985 283.59 207.977 284.628 207.968C287.958 207.945 291.289 207.944 294.62 207.945C296.934 207.938 299.248 207.93 301.562 207.922C306.413 207.908 311.264 207.907 316.115 207.913C322.334 207.919 328.553 207.888 334.772 207.848C339.551 207.822 344.33 207.819 349.109 207.823C351.402 207.821 353.695 207.811 355.988 207.793C359.194 207.771 362.398 207.781 365.604 207.798C366.552 207.785 367.5 207.772 368.477 207.758C373.011 207.816 375.039 207.958 378.779 210.726C380.655 213.414 380.655 213.414 380.717 217.039C379.655 220.414 379.655 220.414 378.208 222.098C374.177 224.175 370.204 223.847 365.733 223.834C364.726 223.842 363.719 223.851 362.682 223.859C359.351 223.883 356.021 223.884 352.69 223.882C350.376 223.89 348.062 223.897 345.748 223.906C340.897 223.919 336.045 223.921 331.194 223.915C324.975 223.909 318.757 223.939 312.538 223.98C307.759 224.006 302.98 224.009 298.2 224.005C295.907 224.007 293.614 224.016 291.321 224.034C288.116 224.056 284.912 224.047 281.706 224.029C280.283 224.049 280.283 224.049 278.832 224.069C274.299 224.011 272.271 223.87 268.53 221.102C266.655 218.414 266.655 218.414 266.592 214.789C267.655 211.414 267.655 211.414 269.101 209.729C273.133 207.652 277.105 207.98 281.576 207.994Z" fill="#99E6FC"/>
<path d="M347.614 116.814C348.613 116.81 349.612 116.806 350.641 116.802C353.939 116.796 357.236 116.825 360.534 116.855C362.826 116.859 365.119 116.862 367.411 116.862C372.214 116.868 377.016 116.891 381.819 116.927C387.978 116.972 394.137 116.987 400.297 116.99C405.03 116.995 409.762 117.01 414.495 117.029C416.767 117.038 419.038 117.045 421.309 117.049C424.481 117.058 427.653 117.081 430.825 117.107C431.766 117.108 432.707 117.109 433.676 117.109C434.973 117.124 434.973 117.124 436.297 117.14C437.046 117.144 437.796 117.149 438.568 117.154C441.013 117.458 442.574 118.099 444.655 119.414C446.655 122.414 446.655 122.414 446.53 125.914C445.655 129.414 445.655 129.414 443.878 131.108C441.397 132.565 440.064 132.792 437.214 132.801C435.89 132.816 435.89 132.816 434.538 132.831C433.577 132.827 432.616 132.822 431.625 132.818C430.607 132.825 429.589 132.832 428.54 132.839C425.172 132.857 421.804 132.853 418.436 132.847C416.097 132.852 413.758 132.857 411.419 132.863C406.517 132.872 401.614 132.87 396.712 132.86C390.423 132.848 384.135 132.869 377.847 132.898C373.017 132.916 368.187 132.916 363.358 132.91C361.039 132.91 358.72 132.916 356.401 132.928C353.162 132.943 349.923 132.933 346.684 132.915C345.242 132.93 345.242 132.93 343.771 132.945C337.298 132.873 337.298 132.873 334.063 130.566C332.099 127.564 332.008 125.934 332.655 122.414C336.895 116.53 340.913 116.709 347.614 116.814Z" fill="#9AE6FC"/>
<path d="M170.655 55.4137C172.48 56.7138 172.48 56.7138 174.366 58.4332C175.062 59.0675 175.759 59.7017 176.477 60.3551C180.074 63.7552 183.602 67.2165 187.092 70.7262C187.811 71.441 188.53 72.1558 189.27 72.8922C189.953 73.5761 190.635 74.2599 191.338 74.9645C191.952 75.5798 192.567 76.1951 193.199 76.829C195.109 78.9082 195.623 80.2495 196.155 83.0387C195.609 86.7198 195.053 87.4398 192.643 90.0973C192.008 90.7979 191.372 91.4985 190.718 92.2204C187.323 95.8296 183.855 99.3575 180.342 102.851C179.627 103.57 178.913 104.289 178.176 105.029C177.492 105.712 176.809 106.394 176.104 107.097C175.181 108.019 175.181 108.019 174.239 108.958C171.766 111.23 170.672 111.412 167.217 111.664C163.655 111.414 163.655 111.414 161.717 110.414C159.952 107.09 159.797 104.001 160.655 100.414C162.931 97.1566 165.728 94.5838 168.655 91.9137C169.418 91.1867 170.181 90.4597 170.967 89.7106C172.846 87.9255 174.741 86.1618 176.655 84.4137C175.311 81.374 173.868 79.45 171.397 77.2418C170.772 76.6592 170.147 76.0765 169.502 75.4762C168.191 74.2711 166.868 73.0782 165.534 71.8981C160.892 67.5158 160.892 67.5158 160.189 64.2477C160.148 61.3499 160.346 58.9944 161.717 56.4137C165.016 54.7112 166.982 54.8117 170.655 55.4137Z" fill="#FEFCFD"/>
<path d="M92.6547 55.4137C95.0297 56.4137 95.0297 56.4137 96.6547 58.4137C97.3613 62.6348 97.6433 65.0011 95.1484 68.566C93.0661 70.7896 90.9053 72.8608 88.6547 74.9137C87.8916 75.6407 87.1285 76.3677 86.3422 77.1168C84.4632 78.9019 82.5682 80.6656 80.6547 82.4137C81.9983 85.4534 83.441 87.3774 85.9125 89.5855C86.5377 90.1682 87.1629 90.7509 87.8071 91.3512C89.1187 92.5563 90.4417 93.7492 91.7758 94.9293C96.4048 99.2995 96.4048 99.2995 97.1406 102.58C97.2082 105.802 97.0949 107.872 95.0297 110.414C91.7562 111.792 90.1973 112.095 86.6547 111.414C80.6558 107.009 75.4529 101.366 70.2172 96.1012C69.4986 95.3864 68.7799 94.6716 68.0395 93.9352C67.3569 93.2513 66.6744 92.5675 65.9711 91.8629C65.357 91.2476 64.7428 90.6323 64.11 89.9984C62.2006 87.9192 61.686 86.5779 61.1547 83.7887C61.7001 80.1076 62.2561 79.3876 64.6664 76.7301C65.3018 76.0295 65.9371 75.3289 66.5917 74.607C69.9864 70.9978 73.454 67.4698 76.9672 63.9762C77.682 63.2575 78.3968 62.5389 79.1332 61.7984C79.8171 61.1159 80.5009 60.4333 81.2055 59.7301C81.8208 59.1159 82.4361 58.5018 83.07 57.869C86.1367 55.0527 88.5838 55.088 92.6547 55.4137Z" fill="#FFFDFD"/>
<path d="M159.655 245.414C164.048 245.372 168.441 245.331 172.967 245.289C174.35 245.27 175.732 245.252 177.156 245.234C178.245 245.229 179.334 245.224 180.456 245.218C181.571 245.208 182.686 245.197 183.836 245.187C186.655 245.414 186.655 245.414 189.655 247.414C190.043 249.904 190.043 249.904 190.053 253.007C190.059 254.676 190.059 254.676 190.065 256.379C190.053 257.545 190.042 258.712 190.03 259.914C190.041 261.08 190.053 262.247 190.065 263.449C190.061 264.561 190.057 265.674 190.053 266.82C190.05 267.844 190.046 268.868 190.043 269.923C189.915 270.745 189.787 271.567 189.655 272.414C186.115 274.774 184.644 274.648 180.456 274.609C179.367 274.604 178.278 274.599 177.156 274.594C175.774 274.576 174.391 274.557 172.967 274.539C168.574 274.497 164.181 274.456 159.655 274.414C159.655 264.844 159.655 255.274 159.655 245.414Z" fill="#FFE177"/>
<path d="M138.655 55.4136C141.592 57.5386 141.592 57.5386 143.655 60.4136C143.279 65.7529 141.339 70.7884 139.635 75.8277C139.335 76.7198 139.036 77.6118 138.727 78.5309C138.093 80.4094 137.456 82.2869 136.818 84.1636C135.844 87.0322 134.889 89.9062 133.934 92.7808C133.315 94.6093 132.694 96.4375 132.073 98.2652C131.79 99.1226 131.508 99.9799 131.217 100.863C129.715 105.211 128.505 108.604 124.655 111.414C121.155 111.976 121.155 111.976 117.655 111.414C115.155 109.351 115.155 109.351 113.655 106.414C114.063 100.831 115.675 95.8399 117.491 90.5933C117.771 89.7716 118.051 88.95 118.339 88.1034C118.93 86.3762 119.523 84.65 120.12 82.9249C121.028 80.2926 121.924 77.6562 122.819 75.0191C123.396 73.3353 123.974 71.6516 124.553 69.9683C124.819 69.1849 125.085 68.4015 125.358 67.5943C129.954 54.3901 129.954 54.3901 138.655 55.4136Z" fill="#FEFBFB"/>
<path d="M82.1547 154.851C85.6547 155.414 85.6547 155.414 87.8491 156.755C90.7651 161.049 90.1448 165.458 90.0454 170.523C90.0397 171.605 90.034 172.687 90.0282 173.802C90.0058 177.256 89.9556 180.71 89.9047 184.164C89.8847 186.506 89.8664 188.849 89.85 191.191C89.8059 196.932 89.7369 202.673 89.6547 208.414C84.7047 208.414 79.7547 208.414 74.6547 208.414C74.5558 201.669 74.4832 194.925 74.435 188.181C74.4149 185.887 74.3876 183.593 74.353 181.299C74.3044 178 74.2818 174.701 74.2641 171.402C74.2435 170.378 74.2228 169.354 74.2015 168.299C74.2002 163.868 74.2253 161.163 76.4604 157.262C78.6547 155.414 78.6547 155.414 82.1547 154.851Z" fill="#A3E630"/>
<path d="M177.655 155.414C180.616 157.471 182.405 159.088 183.09 162.722C183.234 165.628 183.216 168.493 183.143 171.402C183.132 172.99 183.132 172.99 183.122 174.609C183.094 177.982 183.031 181.354 182.967 184.726C182.942 187.016 182.919 189.306 182.899 191.595C182.844 197.202 182.758 202.808 182.655 208.414C177.705 208.414 172.755 208.414 167.655 208.414C167.556 201.509 167.483 194.604 167.435 187.698C167.415 185.349 167.388 183 167.353 180.651C167.304 177.275 167.282 173.899 167.264 170.523C167.243 169.472 167.223 168.421 167.202 167.338C167.199 160.072 167.199 160.072 169.496 156.755C172.512 154.881 174.166 154.773 177.655 155.414Z" fill="#A3E630"/>
<path d="M410.62 207.847C411.49 207.841 412.36 207.835 413.257 207.829C415.095 207.821 416.933 207.825 418.772 207.837C421.58 207.851 424.384 207.817 427.192 207.779C428.98 207.778 430.769 207.78 432.557 207.785C433.812 207.765 433.812 207.765 435.092 207.745C439.406 207.813 441.168 208.046 444.719 210.726C446.655 213.414 446.655 213.414 446.717 217.039C445.509 220.876 445.136 221.575 441.655 223.414C438.656 223.876 435.685 223.882 432.655 223.882C431.782 223.89 430.909 223.898 430.01 223.906C428.168 223.916 426.325 223.919 424.483 223.915C421.664 223.914 418.848 223.955 416.03 224C414.238 224.005 412.446 224.008 410.655 224.007C409.813 224.024 408.971 224.04 408.104 224.057C402.275 223.988 402.275 223.988 399.123 221.068C397.328 217.823 397.033 216.067 397.655 212.414C401.08 207.412 405.065 207.814 410.62 207.847Z" fill="#99E6FC"/>
<path d="M280.182 116.945C281.008 116.937 281.834 116.93 282.685 116.922C284.429 116.911 286.173 116.908 287.917 116.913C290.58 116.914 293.24 116.872 295.903 116.828C297.6 116.823 299.297 116.82 300.995 116.82C301.787 116.804 302.58 116.787 303.397 116.77C307.608 116.823 309.227 117.089 312.696 119.724C314.655 122.414 314.655 122.414 314.655 126.039C313.67 129.362 313.281 130.363 310.655 132.414C307.618 132.737 304.792 132.882 301.752 132.882C300.878 132.89 300.004 132.898 299.104 132.906C297.255 132.916 295.407 132.919 293.558 132.915C290.731 132.914 287.906 132.955 285.079 133C283.282 133.005 281.486 133.008 279.69 133.007C278.423 133.032 278.423 133.032 277.13 133.057C272.964 133.008 271.28 132.977 268.09 130.103C266.12 126.412 266.481 124.376 267.655 120.414C271.13 116.593 275.355 116.946 280.182 116.945Z" fill="#9AE6FC"/>
<path d="M145.28 166.351C149.1 167.554 149.819 167.953 151.655 171.414C151.912 174.318 152.005 177 151.948 179.898C151.943 180.714 151.939 181.529 151.935 182.37C151.918 184.968 151.88 187.566 151.842 190.164C151.827 191.928 151.813 193.692 151.801 195.457C151.768 199.776 151.716 204.095 151.655 208.414C146.705 208.414 141.755 208.414 136.655 208.414C136.531 203.236 136.44 198.059 136.38 192.88C136.355 191.12 136.321 189.359 136.278 187.599C136.217 185.064 136.188 182.531 136.166 179.996C136.141 179.212 136.115 178.429 136.088 177.621C136.086 173.418 136.324 171.848 138.959 168.381C141.655 166.414 141.655 166.414 145.28 166.351Z" fill="#FFC345"/>
<path d="M284.092 252.976C285.225 252.956 286.357 252.936 287.524 252.916C295.751 252.921 295.751 252.921 299.905 255.187C301.756 257.543 302.314 258.52 302.217 261.476C301.655 265.414 301.655 265.414 300.004 267.131C295.219 269.744 289.479 268.925 284.155 268.914C282.3 268.956 282.3 268.956 280.409 269C279.221 269.002 278.034 269.005 276.811 269.007C275.726 269.015 274.641 269.022 273.524 269.029C270.655 268.414 270.655 268.414 268.27 266.103C266.655 263.414 266.655 263.414 266.655 259.789C269.143 251.391 276.747 252.93 284.092 252.976Z" fill="#9AE6FC"/>
<path d="M116.655 188.414C118.858 189.929 118.858 189.929 120.655 192.414C120.945 195.308 121.037 197.793 120.905 200.664C120.887 201.409 120.869 202.154 120.85 202.922C120.803 204.753 120.731 206.583 120.655 208.414C115.705 208.414 110.755 208.414 105.655 208.414C105.547 205.829 105.467 203.249 105.405 200.664C105.371 199.934 105.338 199.205 105.303 198.453C105.239 194.904 105.344 192.844 107.452 189.929C110.672 187.714 112.839 187.869 116.655 188.414Z" fill="#FE6570"/>
</svg>
