<svg width="56" height="56" viewBox="0 0 56 56" fill="none" xmlns="http://www.w3.org/2000/svg">
<rect width="56" height="56" rx="8" fill="#1447E6" fill-opacity="0.2"/>
<g clip-path="url(#clip0_2048_35)">
<path d="M37.264 21.1492H34.7767C34.3431 18.537 31.8366 16.7219 29.182 17.1833C26.8588 14.8232 22.9966 14.9592 20.8459 17.5009C19.9752 18.5299 19.5088 19.8217 19.5092 21.1492C16.8393 21.1492 14.667 23.3214 14.667 25.9913C14.667 28.6613 16.8393 30.8336 19.5092 30.8336H24.3514V33.2547H22.7374V41.325H24.3514V38.9039H25.9655V41.325H27.5796V33.2547H25.9655V30.8336H30.8077V33.2547H29.1937V41.325H30.8077V38.9039H32.4217V41.325H34.0358V33.2547H32.4217V30.8336H37.264C39.934 30.8336 42.1062 28.6613 42.1062 25.9913C42.1062 23.3214 39.934 21.1492 37.264 21.1492ZM24.3514 37.2898V34.8687H25.9655V37.2898H24.3514ZM30.8077 37.2898V34.8687H32.4217V37.2898H30.8077ZM37.264 29.2195H32.4217V27.6054H30.8077V29.2195H25.9655V25.9913H24.3514V29.2195H19.5092C17.7292 29.2195 16.2811 27.7713 16.2811 25.9913C16.2811 24.2113 17.7292 22.7632 19.5092 22.7632H21.3373L21.1795 21.8226C20.9822 20.6467 21.3097 19.4516 22.0779 18.5437C23.7031 16.6231 26.6721 16.6379 28.2761 18.5873L28.6115 18.9947L29.1192 18.851C31.1812 18.2668 33.2288 19.8146 33.2288 21.9562V22.7632H37.264C39.044 22.7632 40.4922 24.2113 40.4922 25.9913C40.4922 27.7713 39.044 29.2195 37.264 29.2195Z" fill="#337DEA"/>
<path d="M16.2812 38.0967H19.5094V39.7108H16.2812V41.3249H21.1235V36.4827H17.8953V34.8686H21.1235V33.2546H16.2812V38.0967Z" fill="#337DEA"/>
<path d="M35.6499 38.0967H38.8781V39.7108H35.6499V41.3249H40.4922V36.4827H37.264V34.8686H40.4922V33.2546H35.6499V38.0967Z" fill="#337DEA"/>
<path d="M24.3516 22.7629H25.9656V24.377H24.3516V22.7629Z" fill="#337DEA"/>
<path d="M30.8081 24.3774H32.4221V25.9915H30.8081V24.3774Z" fill="#337DEA"/>
</g>
<defs>
<clipPath id="clip0_2048_35">
<rect width="29" height="27" fill="white" transform="translate(14 15)"/>
</clipPath>
</defs>
</svg>
