<svg width="25" height="28" viewBox="0 0 25 28" fill="none" xmlns="http://www.w3.org/2000/svg">
<path d="M16.2099 13.2996C16.2099 12.4392 15.5793 11.7401 14.8435 11.7401C14.0553 11.7401 13.4246 12.4392 13.4246 13.2996C13.4246 14.1062 14.0553 14.8053 14.8435 14.8053C15.5793 14.8053 16.2099 14.1062 16.2099 13.2996ZM9.90363 11.7401C9.16789 11.7401 8.53727 12.4392 8.53727 13.2996C8.53727 14.1062 9.16789 14.8053 9.90363 14.8053C10.6919 14.8053 11.27 14.1062 11.27 13.2996C11.3225 12.4392 10.6919 11.7401 9.90363 11.7401ZM24.1453 3.02876C24.1453 1.46932 22.884 0.178741 21.36 0.178741H3.33459C1.81057 0.178741 0.601868 1.46932 0.601868 3.02876V21.6346C0.601868 23.2478 1.81057 24.4846 3.33459 24.4846H18.5748L17.8916 21.9572C21.833 25.6676 20.7294 24.6997 24.1453 27.711V3.02876ZM20.309 16.0958C20.309 16.0958 19.1528 18.0855 16.1573 18.193C16.1573 18.193 15.6844 17.6015 15.264 17.0638C17.0507 16.5798 17.7339 15.4505 17.7339 15.4505C17.1558 15.827 16.6303 16.0421 16.1573 16.2572C13.267 17.494 10.0613 17.0638 7.74898 15.7732C7.74898 15.7194 7.43367 15.5581 7.22346 15.3968C7.22346 15.3968 7.85409 16.526 9.58831 17.0638C9.16789 17.5477 8.69492 18.193 8.69492 18.193C5.69944 18.0855 4.59584 16.0958 4.59584 16.0958C4.59584 11.6326 6.48773 8.08352 6.48773 8.08352C8.43216 6.57784 10.2715 6.63162 10.2715 6.63162L10.4291 6.79294C8.01174 7.492 6.90814 8.56748 6.90814 8.56748C6.90814 8.56748 7.17091 8.40616 7.69643 8.19106C10.797 6.79294 14.5282 6.79294 17.7339 8.56748C17.7339 8.56748 16.6829 7.54578 14.3706 6.84671L14.5808 6.63162C14.5808 6.63162 16.4201 6.57784 18.3645 8.08352C18.3645 8.08352 20.309 11.6326 20.309 16.0958Z" fill="url(#paint0_linear)"/>
<defs>
<linearGradient id="paint0_linear" x1="0.601868" y1="15.174" x2="24.1454" y2="15.1656" gradientUnits="userSpaceOnUse">
<stop offset="0.00318669" stop-color="#007AEA"/>
<stop offset="1" stop-color="#17D8B5"/>
</linearGradient>
</defs>
</svg>
