<svg width="25" height="28" viewBox="0 0 25 28" fill="none" xmlns="http://www.w3.org/2000/svg">
<path d="M16.2096 13.2996C16.2096 12.4392 15.579 11.7402 14.8432 11.7402C14.055 11.7402 13.4243 12.4392 13.4243 13.2996C13.4243 14.1062 14.055 14.8053 14.8432 14.8053C15.579 14.8053 16.2096 14.1062 16.2096 13.2996ZM9.90332 11.7402C9.16759 11.7402 8.53696 12.4392 8.53696 13.2996C8.53696 14.1062 9.16759 14.8053 9.90332 14.8053C10.6916 14.8053 11.2697 14.1062 11.2697 13.2996C11.3222 12.4392 10.6916 11.7402 9.90332 11.7402ZM24.145 3.02878C24.145 1.46933 22.8837 0.178757 21.3597 0.178757H3.33428C1.81027 0.178757 0.601562 1.46933 0.601562 3.02878V21.6346C0.601562 23.2478 1.81027 24.4846 3.33428 24.4846H18.5744L17.8913 21.9572C21.8327 25.6676 20.7291 24.6997 24.145 27.711V3.02878ZM20.3087 16.0959C20.3087 16.0959 19.1525 18.0855 16.157 18.193C16.157 18.193 15.6841 17.6015 15.2637 17.0638C17.0504 16.5798 17.7336 15.4506 17.7336 15.4506C17.1555 15.827 16.63 16.0421 16.157 16.2572C13.2667 17.494 10.061 17.0638 7.74868 15.7732C7.74868 15.7194 7.43336 15.5581 7.22315 15.3968C7.22315 15.3968 7.85378 16.526 9.58801 17.0638C9.16759 17.5477 8.69462 18.193 8.69462 18.193C5.69914 18.0855 4.59554 16.0959 4.59554 16.0959C4.59554 11.6326 6.48742 8.08353 6.48742 8.08353C8.43186 6.57786 10.2712 6.63163 10.2712 6.63163L10.4288 6.79296C8.01144 7.49202 6.90784 8.5675 6.90784 8.5675C6.90784 8.5675 7.1706 8.40617 7.69612 8.19108C10.7967 6.79296 14.5279 6.79296 17.7336 8.5675C17.7336 8.5675 16.6826 7.54579 14.3703 6.84673L14.5805 6.63163C14.5805 6.63163 16.4198 6.57786 18.3642 8.08353C18.3642 8.08353 20.3087 11.6326 20.3087 16.0959Z" fill="url(#paint0_linear)"/>
<defs>
<linearGradient id="paint0_linear" x1="3.05208" y1="21.5174" x2="15.96" y2="2.51136" gradientUnits="userSpaceOnUse">
<stop offset="0.00318669" stop-color="#349EFE"/>
<stop offset="1" stop-color="#005BAE"/>
</linearGradient>
</defs>
</svg>
