<svg width="25" height="25" viewBox="0 0 25 25" fill="none" xmlns="http://www.w3.org/2000/svg">
<path d="M12.5 0C5.59476 0 0 5.59476 0 12.5C0 19.4052 5.59476 25 12.5 25C19.4052 25 25 19.4052 25 12.5C25 5.59476 19.4052 0 12.5 0ZM21.5222 8.06452H18.1452C17.7923 6.25 17.2379 4.6371 16.5323 3.32661C18.6996 4.28427 20.4637 5.94758 21.5222 8.06452ZM12.5 2.41935C13.4073 2.41935 14.9194 4.53629 15.6754 8.06452H9.27419C10.0302 4.53629 11.5423 2.41935 12.5 2.41935ZM2.41935 12.5C2.41935 11.8448 2.46976 11.1391 2.62097 10.4839H6.50202C6.45161 11.1895 6.45161 11.8448 6.45161 12.5C6.45161 13.2056 6.45161 13.8609 6.50202 14.5161H2.62097C2.46976 13.9113 2.41935 13.2056 2.41935 12.5ZM3.42742 16.9355H6.80444C7.15726 18.8004 7.71169 20.4133 8.41734 21.7238C6.25 20.7661 4.48589 19.0524 3.42742 16.9355ZM6.80444 8.06452H3.42742C4.48589 5.94758 6.25 4.28427 8.41734 3.32661C7.71169 4.6371 7.15726 6.25 6.80444 8.06452ZM12.5 22.5806C11.5423 22.5806 10.0302 20.5141 9.27419 16.9355H15.6754C14.9194 20.5141 13.4073 22.5806 12.5 22.5806ZM16.0282 14.5161H8.92137C8.87097 13.9113 8.87097 13.2056 8.87097 12.5C8.87097 11.7944 8.87097 11.1391 8.92137 10.4839H16.0282C16.0786 11.1391 16.129 11.7944 16.129 12.5C16.129 13.2056 16.0786 13.9113 16.0282 14.5161ZM16.5323 21.7238C17.2379 20.4133 17.7923 18.8004 18.1452 16.9355H21.5222C20.4637 19.0524 18.6996 20.7661 16.5323 21.7238ZM18.4476 14.5161C18.498 13.8609 18.5484 13.2056 18.5484 12.5C18.5484 11.8448 18.498 11.1895 18.4476 10.4839H22.379C22.4798 11.1391 22.5806 11.8448 22.5806 12.5C22.5806 13.2056 22.4798 13.9113 22.379 14.5161H18.4476Z" fill="url(#paint0_linear)"/>
<defs>
<linearGradient id="paint0_linear" x1="2.60212" y1="19.376" x2="13.5539" y2="0.518228" gradientUnits="userSpaceOnUse">
<stop offset="0.00318669" stop-color="#349EFE"/>
<stop offset="1" stop-color="#005BAE"/>
</linearGradient>
</defs>
</svg>
