<svg width="29" height="29" viewBox="0 0 29 29" fill="none" xmlns="http://www.w3.org/2000/svg">
<path d="M14.9381 7.11346C10.9405 7.11346 7.75494 10.437 7.75494 14.4636C7.75494 18.5541 10.9405 21.8137 14.9381 21.8137C18.8732 21.8137 22.1212 18.5541 22.1212 14.4636C22.1212 10.437 18.8732 7.11346 14.9381 7.11346ZM14.9381 19.2572C12.3771 19.2572 10.2534 17.148 10.2534 14.4636C10.2534 11.8431 12.3147 9.73395 14.9381 9.73395C17.499 9.73395 19.5603 11.8431 19.5603 14.4636C19.5603 17.148 17.499 19.2572 14.9381 19.2572ZM24.0576 6.85781C24.0576 5.89909 23.308 5.13212 22.3711 5.13212C21.4342 5.13212 20.6846 5.89909 20.6846 6.85781C20.6846 7.81652 21.4342 8.58349 22.3711 8.58349C23.308 8.58349 24.0576 7.81652 24.0576 6.85781ZM28.8047 8.58349C28.6798 6.28258 28.1801 4.23732 26.5561 2.57555C24.932 0.913785 22.9333 0.402472 20.6846 0.274643C18.3735 0.146815 11.4402 0.146815 9.12911 0.274643C6.88047 0.402472 4.94415 0.913785 3.25767 2.57555C1.63365 4.23732 1.13395 6.28258 1.00903 8.58349C0.884106 10.9483 0.884106 18.0428 1.00903 20.4076C1.13395 22.7085 1.63365 24.6899 3.25767 26.4156C4.94415 28.0773 6.88047 28.5886 9.12911 28.7165C11.4402 28.8443 18.3735 28.8443 20.6846 28.7165C22.9333 28.5886 24.932 28.0773 26.5561 26.4156C28.1801 24.6899 28.6798 22.7085 28.8047 20.4076C28.9296 18.0428 28.9296 10.9483 28.8047 8.58349ZM25.8065 22.9003C25.3693 24.1786 24.3699 25.1373 23.1831 25.6486C21.3092 26.4156 16.9369 26.2238 14.9381 26.2238C12.8768 26.2238 8.50449 26.4156 6.69309 25.6486C5.44384 25.1373 4.50691 24.1786 4.00721 22.9003C3.25767 21.0468 3.44505 16.5728 3.44505 14.4636C3.44505 12.4183 3.25767 7.94435 4.00721 6.02692C4.50691 4.81255 5.44384 3.85384 6.69309 3.34253C8.50449 2.57555 12.8768 2.7673 14.9381 2.7673C16.9369 2.7673 21.3092 2.57555 23.1831 3.34253C24.3699 3.78992 25.3068 4.81255 25.8065 6.02692C26.5561 7.94435 26.3687 12.4183 26.3687 14.4636C26.3687 16.5728 26.5561 21.0468 25.8065 22.9003Z" fill="url(#paint0_linear)"/>
<defs>
<linearGradient id="paint0_linear" x1="0.915337" y1="15.7738" x2="28.8985" y2="15.7624" gradientUnits="userSpaceOnUse">
<stop offset="0.00318669" stop-color="#007AEA"/>
<stop offset="1" stop-color="#17D8B5"/>
</linearGradient>
</defs>
</svg>
