<svg width="29" height="29" viewBox="0 0 29 29" fill="none" xmlns="http://www.w3.org/2000/svg">
<path d="M14.938 7.11345C10.9405 7.11345 7.75489 10.437 7.75489 14.4636C7.75489 18.5541 10.9405 21.8137 14.938 21.8137C18.8732 21.8137 22.1212 18.5541 22.1212 14.4636C22.1212 10.437 18.8732 7.11345 14.938 7.11345ZM14.938 19.2571C12.3771 19.2571 10.2534 17.148 10.2534 14.4636C10.2534 11.8431 12.3146 9.73393 14.938 9.73393C17.499 9.73393 19.5602 11.8431 19.5602 14.4636C19.5602 17.148 17.499 19.2571 14.938 19.2571ZM24.0575 6.85779C24.0575 5.89908 23.308 5.13211 22.371 5.13211C21.4341 5.13211 20.6846 5.89908 20.6846 6.85779C20.6846 7.8165 21.4341 8.58348 22.371 8.58348C23.308 8.58348 24.0575 7.8165 24.0575 6.85779ZM28.8046 8.58348C28.6797 6.28256 28.18 4.23731 26.556 2.57554C24.932 0.91377 22.9332 0.402456 20.6846 0.274628C18.3735 0.1468 11.4402 0.1468 9.12906 0.274628C6.88042 0.402456 4.94409 0.91377 3.25761 2.57554C1.6336 4.23731 1.1339 6.28256 1.00898 8.58348C0.884052 10.9483 0.884052 18.0428 1.00898 20.4076C1.1339 22.7085 1.6336 24.6899 3.25761 26.4155C4.94409 28.0773 6.88042 28.5886 9.12906 28.7164C11.4402 28.8443 18.3735 28.8443 20.6846 28.7164C22.9332 28.5886 24.932 28.0773 26.556 26.4155C28.18 24.6899 28.6797 22.7085 28.8046 20.4076C28.9296 18.0428 28.9296 10.9483 28.8046 8.58348ZM25.8065 22.9003C25.3692 24.1785 24.3698 25.1373 23.183 25.6486C21.3092 26.4155 16.9368 26.2238 14.938 26.2238C12.8768 26.2238 8.50444 26.4155 6.69303 25.6486C5.44379 25.1373 4.50686 24.1785 4.00716 22.9003C3.25761 21.0467 3.445 16.5728 3.445 14.4636C3.445 12.4183 3.25761 7.94433 4.00716 6.02691C4.50686 4.81254 5.44379 3.85382 6.69303 3.34251C8.50444 2.57554 12.8768 2.76728 14.938 2.76728C16.9368 2.76728 21.3092 2.57554 23.183 3.34251C24.3698 3.78991 25.3068 4.81254 25.8065 6.02691C26.556 7.94433 26.3686 12.4183 26.3686 14.4636C26.3686 16.5728 26.556 21.0467 25.8065 22.9003Z" fill="url(#paint0_linear)"/>
<defs>
<linearGradient id="paint0_linear" x1="3.82789" y1="22.3709" x2="16.5125" y2="1.02552" gradientUnits="userSpaceOnUse">
<stop offset="0.00318669" stop-color="#349EFE"/>
<stop offset="1" stop-color="#005BAE"/>
</linearGradient>
</defs>
</svg>
