<svg width="25" height="21" viewBox="0 0 25 21" fill="none" xmlns="http://www.w3.org/2000/svg">
<path d="M24.375 14.0696H22.5V2.55812C22.5 1.15915 21.3672 0 20 0H5C3.59375 0 2.5 1.15915 2.5 2.55812V14.0696H0.625C0.273437 14.0696 0 14.3894 0 14.7092V16.6278C0 18.7462 1.67969 20.4649 3.75 20.4649H21.25C23.2812 20.4649 25 18.7462 25 16.6278V14.7092C25 14.3894 24.6875 14.0696 24.375 14.0696ZM4.375 2.55812C4.375 2.23835 4.64844 1.91859 5 1.91859H20C20.3125 1.91859 20.625 2.23835 20.625 2.55812V14.0696H4.375V2.55812ZM23.125 16.6278C23.125 17.707 22.2656 18.5463 21.25 18.5463H3.75C2.69531 18.5463 1.875 17.707 1.875 16.6278V15.9882H8.90625C9.14062 16.3879 9.53125 16.6278 10 16.6278H15C15.4297 16.6278 15.8203 16.3879 16.0547 15.9882H23.125V16.6278Z" fill="url(#paint0_linear_702_255)"/>
<defs>
<linearGradient id="paint0_linear_702_255" x1="6.28358e-09" y1="11.1461" x2="25.0001" y2="11.1334" gradientUnits="userSpaceOnUse">
<stop offset="0.00318669" stop-color="#007AEA"/>
<stop offset="1" stop-color="#17D8B5"/>
</linearGradient>
</defs>
</svg>
