<svg width="28" height="23" viewBox="0 0 28 23" fill="none" xmlns="http://www.w3.org/2000/svg">
<path d="M26.6069 15.6254H24.5889V3.23586C24.5889 1.73019 23.3697 0.482635 21.8982 0.482635H5.75416C4.24065 0.482635 3.06348 1.73019 3.06348 3.23586V15.6254H1.04547C0.667096 15.6254 0.372803 15.9695 0.372803 16.3137V18.3786C0.372803 20.6586 2.1806 22.5085 4.40882 22.5085H23.2436C25.4297 22.5085 27.2796 20.6586 27.2796 18.3786V16.3137C27.2796 15.9695 26.9432 15.6254 26.6069 15.6254ZM5.08149 3.23586C5.08149 2.89171 5.37578 2.54756 5.75416 2.54756H21.8982C22.2346 2.54756 22.5709 2.89171 22.5709 3.23586V15.6254H5.08149V3.23586ZM25.2616 18.3786C25.2616 19.5401 24.3367 20.4435 23.2436 20.4435H4.40882C3.27369 20.4435 2.39081 19.5401 2.39081 18.3786V17.6903H9.95834C10.2106 18.1205 10.631 18.3786 11.1355 18.3786H16.5169C16.9793 18.3786 17.3997 18.1205 17.652 17.6903H25.2616V18.3786Z" fill="url(#paint0_linear)"/>
<defs>
<linearGradient id="paint0_linear" x1="3.17339" y1="17.5535" x2="11.7888" y2="-0.568628" gradientUnits="userSpaceOnUse">
<stop offset="0.00318669" stop-color="#349EFE"/>
<stop offset="1" stop-color="#005BAE"/>
</linearGradient>
</defs>
</svg>
