<svg width="46" height="47" viewBox="0 0 46 47" fill="none" xmlns="http://www.w3.org/2000/svg">
<rect y="0.0278015" width="46" height="46" rx="5" fill="url(#paint0_linear)"/>
<path d="M36.2329 15.3292C36.1781 15.2744 36.1781 15.2744 36.1781 15.2196C36.1233 15.1648 36.1233 15.1648 36.1233 15.1648L36.0685 15.11C36.0685 15.11 36.0137 15.11 36.0137 15.0552L30.7534 12.0415C30.6986 11.9867 30.589 11.9867 30.5342 11.9867C30.4247 11.9867 30.3699 11.9867 30.3151 12.0415L25.0548 15.0552C25 15.11 25 15.11 25 15.11C24.9452 15.11 24.9452 15.1648 24.9452 15.1648C24.9452 15.1648 24.8904 15.1648 24.8904 15.2196C24.8904 15.2744 24.8356 15.2744 24.8356 15.3292C24.8356 15.384 24.8356 15.4388 24.8356 15.4388V21.247L20.3973 23.7675V12.4799C20.3973 12.4251 20.3973 12.4251 20.3973 12.3703V12.3155C20.3973 12.3155 20.3973 12.2607 20.3425 12.2607V12.2059C20.3425 12.2059 20.2877 12.2059 20.2877 12.1511C20.2877 12.1511 20.2877 12.1511 20.2329 12.1511C20.2329 12.0963 20.2329 12.0963 20.1781 12.0963L14.9178 9.0826C14.863 9.0278 14.8082 9.0278 14.6986 9.0278C14.6438 9.0278 14.5342 9.0278 14.4795 9.0826L9.21918 12.0963C9.21918 12.0963 9.16438 12.0963 9.16438 12.1511H9.10959C9.10959 12.2059 9.10959 12.2059 9.05479 12.2059V12.2607C9.05479 12.2607 9.05479 12.3155 9 12.3155V12.3703C9 12.4251 9 12.4251 9 12.4799V30.562C9 30.7264 9.05479 30.836 9.21918 30.9456L19.7397 36.973C19.7945 37.0278 19.7945 37.0278 19.8493 37.0278C19.9041 37.0278 19.9589 37.0278 19.9589 37.0278C20.0137 37.0278 20.0685 37.0278 20.0685 37.0278C20.1233 37.0278 20.1233 37.0278 20.1233 37.0278C20.1233 37.0278 20.1781 37.0278 20.1781 36.973L30.7534 30.9456C30.863 30.836 30.9726 30.7264 30.9726 30.562V24.7538L36.0137 21.8497C36.1781 21.7949 36.2329 21.6305 36.2329 21.4662V15.4388C36.2329 15.4388 36.2329 15.384 36.2329 15.3292ZM14.6986 9.95931L19.0822 12.4799L14.6986 15.0004L10.3151 12.4799L14.6986 9.95931ZM19.5205 13.247V24.2607L17 25.7401L15.137 26.7812V15.7675L19.5205 13.247ZM19.5205 35.8771L9.87671 30.2881V13.247L11.7397 14.2881L14.2603 15.7675V27.6579C14.2603 27.7127 14.3151 27.7127 14.3151 27.7127C14.3151 27.7675 14.3151 27.7675 14.3151 27.7675L14.3699 27.8223V27.8771C14.4247 27.8771 14.4247 27.8771 14.4247 27.8771C14.4247 27.9319 14.4795 27.9319 14.4795 27.9319L19.5205 30.7812V35.8771ZM19.9589 30.0141L15.5753 27.5483L20.1781 24.9182L25.274 22.0141L29.6575 24.5347L26.4247 26.3429L19.9589 30.0141ZM30.0959 30.2881L20.3973 35.8771V30.7812L30.0959 25.3018V30.2881ZM30.0959 23.7675L28.2329 22.6716L25.7123 21.247V16.2059L27.5205 17.3018L30.0959 18.7264V23.7675ZM30.5342 18.0141L26.1507 15.4388L30.5342 12.9182L34.9178 15.4388L30.5342 18.0141ZM30.9726 23.7675V18.7264L33.5479 17.3018L35.3562 16.2059V21.247L30.9726 23.7675Z" fill="white"/>
<defs>
<linearGradient id="paint0_linear" x1="4.7879" y1="35.6797" x2="24.9391" y2="0.981342" gradientUnits="userSpaceOnUse">
<stop offset="0.00318669" stop-color="#EA2D3F"/>
<stop offset="1" stop-color="#EA583A"/>
</linearGradient>
</defs>
</svg>
