<svg width="46" height="47" viewBox="0 0 46 47" fill="none" xmlns="http://www.w3.org/2000/svg">
<rect y="0.0278015" width="46" height="46" rx="5" fill="url(#paint0_linear)"/>
<path d="M24.2921 13.0696C23.5108 11.6805 21.4706 11.6805 20.6892 13.0696L10.2712 31.1274C9.4899 32.5165 10.4883 34.2528 12.0944 34.2528H32.9304C34.4931 34.2528 35.5349 32.5165 34.7101 31.1274L24.2921 13.0696ZM32.9304 32.8638H12.0944C11.5301 32.8638 11.2262 32.2995 11.4867 31.822L21.9047 13.7641C22.1651 13.33 22.8162 13.33 23.0767 13.7641L33.4947 31.822C33.7985 32.2995 33.4513 32.8638 32.9304 32.8638Z" fill="white"/>
<defs>
<linearGradient id="paint0_linear" x1="4.7879" y1="35.6797" x2="24.9391" y2="0.981342" gradientUnits="userSpaceOnUse">
<stop offset="0.00318669" stop-color="#5F3FDF"/>
<stop offset="1" stop-color="#0A49C4"/>
</linearGradient>
</defs>
</svg>
