<svg width="20" height="17" viewBox="0 0 20 17" fill="none" xmlns="http://www.w3.org/2000/svg">
<path fill-rule="evenodd" clip-rule="evenodd" d="M1.3749 7.4458C6.74359 5.10674 10.3236 3.56469 12.1148 2.81965C17.2292 0.692404 18.2919 0.322879 18.9846 0.310677C19.1369 0.307993 19.4776 0.345749 19.6982 0.52479C19.8845 0.675969 19.9358 0.88019 19.9603 1.02352C19.9848 1.16686 20.0154 1.49338 19.9911 1.74851C19.714 4.66055 18.5147 11.7273 17.9046 14.9888C17.6465 16.3689 17.1382 16.8316 16.6461 16.8769C15.5766 16.9753 14.7645 16.1701 13.7287 15.4911C12.1078 14.4286 11.1921 13.7672 9.61879 12.7304C7.80053 11.5322 8.97923 10.8737 10.0154 9.79742C10.2866 9.51576 14.9987 5.22975 15.0899 4.84095C15.1013 4.79232 15.1119 4.61106 15.0042 4.51535C14.8965 4.41964 14.7376 4.45237 14.6229 4.4784C14.4604 4.5153 11.871 6.22676 6.85486 9.6128C6.11988 10.1175 5.45416 10.3634 4.8577 10.3505C4.20015 10.3363 2.93528 9.97872 1.99498 9.67307C0.84166 9.29817 -0.074973 9.09996 0.00484519 8.46327C0.0464194 8.13164 0.503103 7.79248 1.3749 7.4458Z" fill="url(#paint0_linear_615_304)"/>
<defs>
<linearGradient id="paint0_linear_615_304" x1="5.02686e-09" y1="9.33777" x2="20" y2="9.32772" gradientUnits="userSpaceOnUse">
<stop offset="0.00318669" stop-color="#007AEA"/>
<stop offset="1" stop-color="#17D8B5"/>
</linearGradient>
</defs>
</svg>
