<svg width="1563" height="337" viewBox="0 0 1563 337" fill="none" xmlns="http://www.w3.org/2000/svg">
<path d="M1101.82 89.7301C1099.8 87.5601 1097.53 85.5601 1094.91 83.6401C1094.65 83.4501 1094.39 83.2601 1094.08 83.0601C1093.34 82.5301 1092.6 82.0101 1092 81.6801C1080.98 74.7801 1068.64 74.4301 1066.05 74.4301H1013.88C1009.48 74.4301 1005.91 78.0101 1005.91 82.4001V114.91C1005.91 119.31 1009.49 122.88 1013.88 122.88H1056.85C1057.07 122.93 1057.3 122.95 1057.53 122.97C1060.53 123.14 1063.03 125.27 1063.62 128.15C1064.25 131.28 1064.5 134.8 1064.35 138.62C1062.32 138.26 1060.11 137.95 1057.75 137.69C1052.73 137.14 1047.11 136.86 1041.04 136.86C1031.75 136.86 1022.65 137.79 1014.01 139.64C1005.1 141.53 997.09 144.64 990.22 148.87C983.11 153.22 977.32 159.16 972.99 166.57C968.74 173.98 966.59 183.02 966.59 193.44C966.59 204.24 968.44 213.5 972.09 220.95C975.78 228.59 981.16 234.87 988.09 239.61C994.75 244.18 1002.87 247.55 1012.26 249.63C1021.23 251.57 1031.34 252.55 1042.31 252.55C1059.45 252.55 1074.21 251.53 1086.21 249.51C1086.33 249.5 1086.45 249.48 1086.55 249.46C1086.63 249.45 1086.71 249.44 1086.78 249.43C1105.08 246.35 1118.36 230.64 1118.36 212.06V142.3C1118.36 131.69 1117.13 121.85 1114.72 113.07C1112.22 104 1107.88 96.1501 1101.82 89.7301ZM1024.29 185.45C1025.51 183.62 1027.17 182.21 1029.45 181.09C1031.85 179.85 1034.67 179.03 1038.07 178.58C1041.86 178.08 1045.81 177.82 1049.83 177.82C1052.67 177.82 1055.98 178.03 1059.66 178.45C1061.24 178.63 1062.66 178.81 1063.9 178.98V206.2C1062.27 206.35 1060.44 206.48 1058.43 206.59C1054.22 206.78 1049.97 206.87 1045.46 206.87C1037.76 206.87 1031.74 205.66 1027.57 203.28C1025.44 202.06 1022.62 199.59 1022.62 192.19C1022.61 189.4 1023.18 187.13 1024.29 185.45Z" fill="white"/>
<path d="M1560.53 182.1C1558.82 176.41 1555.83 171.18 1551.64 166.54C1547.56 162.05 1542.01 157.85 1535.15 154.06C1528.53 150.41 1520.08 146.67 1510.05 142.95C1505.41 141.2 1501.54 139.58 1498.52 138.1C1495.66 136.71 1493.41 135.43 1491.83 134.27C1490.34 133.2 1489.92 132.46 1489.8 132.18C1489.46 131.38 1489.28 130.39 1489.28 129.24C1489.28 127.51 1489.28 122.24 1505.64 122.24C1512.89 122.24 1519.49 122.91 1525.26 124.23C1529.97 125.31 1534.47 126.53 1538.62 127.86C1540.77 128.54 1543.1 128.29 1545.04 127.18C1546.96 126.08 1548.35 124.2 1548.84 122.02L1555.31 93.15C1556.2 89.15 1553.94 85.15 1550.05 83.84C1544.98 82.13 1538.58 80.53 1531.01 79.07C1521.85 77.31 1512.2 76.41 1502.31 76.41C1481.97 76.41 1465.63 81.12 1453.75 90.42C1441.51 99.99 1435.3 113.15 1435.3 129.54C1435.3 137.8 1436.54 145.01 1438.97 150.98C1441.43 157.01 1444.94 162.28 1449.42 166.65C1453.8 170.92 1459.14 174.62 1465.31 177.64C1471.2 180.54 1477.81 183.35 1484.91 185.98C1493.66 189.29 1500.19 192.26 1504.34 194.8C1507.24 196.58 1508.71 198.41 1508.71 200.24C1508.71 204.15 1507.1 204.91 1506.32 205.28C1504.42 206.18 1500.19 207.24 1490.84 207.24C1483.35 207.24 1475.65 206.41 1467.97 204.78C1461.38 203.38 1454.85 201.5 1448.54 199.19C1446.35 198.39 1443.92 198.57 1441.88 199.71C1439.86 200.83 1438.44 202.78 1437.97 205.04L1431.71 235.33C1430.9 239.22 1433 243.03 1436.69 244.41C1440.66 245.89 1446.37 247.58 1454.14 249.59C1463.85 252.09 1476.09 253.36 1490.53 253.36C1512.95 253.36 1530.68 249.03 1543.23 240.47C1556.34 231.52 1562.99 218.22 1562.99 200.95C1563 193.89 1562.17 187.54 1560.53 182.1Z" fill="white"/>
<path d="M1395.52 100.64C1388.31 93.0201 1379.58 87.0101 1369.55 82.7801C1359.53 78.5701 1348.4 76.4301 1336.47 76.4301C1324.73 76.4301 1313.69 78.5701 1303.68 82.7801C1293.66 87.0001 1284.88 93.0001 1277.58 100.61C1270.3 108.21 1264.53 117.49 1260.43 128.21C1256.36 138.87 1254.29 150.81 1254.29 163.68C1254.29 176.55 1256.3 188.52 1260.26 199.25C1264.25 210.06 1269.91 219.45 1277.09 227.15C1284.29 234.89 1293.04 240.96 1303.09 245.18C1313.1 249.39 1324.33 251.53 1336.47 251.53C1348.81 251.53 1360.14 249.39 1370.15 245.18C1380.19 240.95 1388.94 234.89 1396.15 227.15C1403.34 219.42 1408.91 210.01 1412.7 199.17C1416.45 188.45 1418.35 176.51 1418.35 163.67C1418.35 150.82 1416.34 138.9 1412.37 128.23C1408.36 117.54 1402.7 108.25 1395.52 100.64ZM1355.96 193.73C1351.39 200.46 1345.01 203.73 1336.46 203.73C1327.89 203.73 1321.45 200.45 1316.78 193.69C1311.79 186.47 1309.26 176.38 1309.26 163.69C1309.26 151.02 1311.78 141.04 1316.75 134.03C1321.41 127.45 1327.86 124.24 1336.46 124.24C1345.03 124.24 1351.42 127.43 1355.99 133.99C1360.88 141.01 1363.35 151 1363.35 163.68C1363.35 176.4 1360.86 186.5 1355.96 193.73Z" fill="white"/>
<path d="M1241.44 74.42H1206.61C1204.85 74.42 1203.42 72.99 1203.42 71.23V49.47C1203.42 47.71 1201.99 46.28 1200.23 46.28H1153.72C1151.96 46.28 1150.53 47.71 1150.53 49.47V71.23C1150.53 72.99 1149.1 74.42 1147.34 74.42H1135.47C1133.71 74.42 1132.28 75.85 1132.28 77.61V122.18C1132.28 123.94 1133.71 125.37 1135.47 125.37H1147.34C1149.1 125.37 1150.53 126.8 1150.53 128.56V180.19C1150.53 190.55 1151.5 200.03 1153.4 208.38C1155.42 217.26 1159.03 224.95 1164.15 231.24C1172.18 241.05 1184.42 247.62 1200.15 250.44C1200.29 250.46 1200.44 250.48 1200.58 250.49C1223.61 252.05 1220.59 250.52 1233.69 250.6C1233.84 250.6 1233.99 250.6 1234.15 250.6C1235.4 250.61 1236.65 250.62 1237.9 250.62C1239.65 250.62 1241.07 249.18 1241.07 247.43V208.2C1241.07 206.44 1239.64 205.01 1237.88 205.01H1222.41C1214.82 204.91 1209.85 202.93 1207.62 199.14C1204.84 194.42 1203.43 187.83 1203.43 179.57V128.57C1203.43 126.81 1204.86 125.38 1206.62 125.38H1241.45C1243.21 125.38 1244.64 123.95 1244.64 122.19V77.61C1244.63 75.85 1243.2 74.42 1241.44 74.42Z" fill="white"/>
<path d="M162.5 57.45C178.36 57.45 191.22 44.59 191.22 28.73C191.23 12.86 178.37 0 162.5 0C146.63 0 133.78 12.86 133.78 28.72C133.78 44.59 146.64 57.45 162.5 57.45Z" fill="white"/>
<path d="M545.85 76.4301H458.93C458.32 76.4301 457.74 76.5601 457.2 76.7901C447.25 77.4701 438.14 79.3201 430.09 82.2901C419.47 86.2201 410.36 91.8901 402.99 99.1501C395.62 106.42 389.93 115.24 386.09 125.37C382.29 135.38 380.37 146.62 380.37 158.78C380.37 183.14 386.65 202.48 399.03 216.25C411.54 230.17 429.63 237.23 452.8 237.23C459.14 237.23 465.09 236.64 470.49 235.47C473.55 234.81 476.58 233.96 479.56 232.92C479.31 239.89 477.13 245.45 472.93 249.9C468.58 254.49 460.59 256.82 449.19 256.82C439.74 256.82 431.22 256.04 423.86 254.52C417.67 253.23 411.63 251.52 405.91 249.43C403.72 248.63 401.29 248.81 399.26 249.94C397.24 251.06 395.82 253 395.34 255.27L388.87 286.38C388.03 290.4 390.33 294.37 394.21 295.61C401.84 298.06 410.15 300.09 418.89 301.64C428.77 303.38 438.76 304.27 448.59 304.27C477.19 304.27 498.78 297.5 512.77 284.16C526.82 270.75 533.95 250.22 533.95 223.12V126.87H545.85C550.25 126.87 553.82 123.29 553.82 118.9V84.4001C553.83 80.0101 550.25 76.4301 545.85 76.4301ZM479.6 122.9V187.44C477.62 188.36 475.33 189.22 472.79 189.98C469.24 191.04 465.36 191.58 461.24 191.58C450.26 191.58 435.66 188.18 435.66 158.78C435.66 147.86 438.28 138.8 443.43 131.87C448.33 125.28 455.72 122.08 466.05 122.08C469.9 122.08 473.27 122.22 476.11 122.51C477.32 122.63 478.49 122.76 479.6 122.9Z" fill="white"/>
<path d="M350.69 89.7301C348.67 87.5601 346.4 85.5601 343.78 83.6401C343.52 83.4501 343.26 83.2601 342.95 83.0601C342.21 82.5301 341.47 82.0101 340.87 81.6801C329.85 74.7801 317.51 74.4301 314.92 74.4301H262.75C258.35 74.4301 254.78 78.0101 254.78 82.4001V114.91C254.78 119.31 258.36 122.88 262.75 122.88H305.72C305.94 122.93 306.17 122.95 306.4 122.97C309.4 123.14 311.9 125.27 312.49 128.15C313.12 131.28 313.37 134.8 313.22 138.62C311.19 138.26 308.98 137.95 306.62 137.69C301.6 137.14 295.98 136.86 289.91 136.86C280.62 136.86 271.52 137.79 262.88 139.64C253.97 141.53 245.96 144.64 239.09 148.87C231.98 153.22 226.19 159.16 221.86 166.57C217.61 173.98 215.46 183.02 215.46 193.44C215.46 204.24 217.31 213.5 220.96 220.95C224.65 228.59 230.03 234.87 236.96 239.61C243.62 244.18 251.74 247.55 261.13 249.63C270.1 251.57 280.21 252.55 291.18 252.55C308.32 252.55 323.08 251.53 335.08 249.51C335.2 249.5 335.32 249.48 335.42 249.46C335.5 249.45 335.58 249.44 335.65 249.43C353.95 246.35 367.23 230.64 367.23 212.06V142.3C367.23 131.69 366 121.85 363.59 113.07C361.08 104 356.75 96.1501 350.69 89.7301ZM273.15 185.45C274.37 183.62 276.03 182.21 278.31 181.09C280.71 179.85 283.53 179.03 286.93 178.58C290.72 178.08 294.67 177.82 298.69 177.82C301.53 177.82 304.84 178.03 308.52 178.45C310.1 178.63 311.52 178.81 312.76 178.98V206.2C311.13 206.35 309.3 206.48 307.29 206.59C303.08 206.78 298.83 206.87 294.32 206.87C286.62 206.87 280.6 205.66 276.43 203.28C274.3 202.06 271.48 199.59 271.48 192.19C271.47 189.4 272.04 187.13 273.15 185.45Z" fill="white"/>
<path d="M198.78 205.35H189.73V77.61C189.73 75.85 188.3 74.42 186.54 74.42H140.9C140.88 74.42 140.86 74.43 140.84 74.43H73.33C72.12 74.43 71.13 73.45 71.13 72.24V44.76C71.13 42.96 69.67 41.5 67.87 41.5H21.51C19.71 41.5 18.25 42.96 18.25 44.76V72.24C18.25 73.45 17.27 74.43 16.06 74.43H3.27C1.46 74.43 0 75.89 0 77.7V122.12C0 123.92 1.46 125.38 3.27 125.38H16.06C17.27 125.38 18.25 126.36 18.25 127.57V180.52C18.25 190.88 19.22 200.36 21.12 208.71C23.14 217.59 26.75 225.28 31.87 231.57C37.63 238.61 45.56 243.98 55.39 247.49C62.51 250.04 70.14 251.03 77.7 251.36C90.77 251.92 90.45 250.86 101.41 250.93C101.56 250.93 101.72 250.93 101.87 250.93C103.09 250.94 104.3 250.95 105.52 250.95C107.32 250.95 108.79 249.49 108.79 247.68V208.61C108.79 206.81 107.33 205.35 105.53 205.35H90.13C82.54 205.25 77.57 203.27 75.34 199.48C72.56 194.76 71.15 188.17 71.15 179.91V127.59C71.15 126.38 72.13 125.4 73.35 125.4H137.74V205.35H128.69C126.93 205.35 125.5 206.78 125.5 208.54V246.24C125.5 248 126.93 249.43 128.69 249.43H198.81C200.57 249.43 202 248 202 246.24V208.54C201.97 206.77 200.54 205.35 198.78 205.35Z" fill="white"/>
<path d="M1158.48 323.14C1160.01 323.14 1161.13 322.96 1161.83 322.59C1162.53 322.22 1162.88 321.59 1162.88 320.7C1162.88 319.87 1162.51 319.19 1161.76 318.65C1161.01 318.11 1159.78 317.52 1158.05 316.88C1157 316.5 1156.04 316.09 1155.16 315.66C1154.28 315.23 1153.53 314.73 1152.89 314.15C1152.25 313.57 1151.75 312.88 1151.38 312.07C1151.01 311.26 1150.83 310.26 1150.83 309.08C1150.83 306.79 1151.67 304.98 1153.36 303.66C1155.05 302.34 1157.34 301.68 1160.24 301.68C1161.7 301.68 1163.11 301.82 1164.44 302.08C1165.78 302.35 1166.78 302.61 1167.45 302.87L1166.4 307.55C1165.76 307.26 1164.95 307 1163.96 306.76C1162.97 306.52 1161.82 306.4 1160.52 306.4C1159.34 306.4 1158.38 306.6 1157.65 307C1156.91 307.4 1156.55 308.01 1156.55 308.84C1156.55 309.25 1156.62 309.62 1156.77 309.94C1156.91 310.26 1157.16 310.55 1157.51 310.83C1157.86 311.1 1158.32 311.37 1158.89 311.64C1159.47 311.91 1160.17 312.19 1160.99 312.48C1162.36 312.99 1163.52 313.49 1164.48 313.99C1165.44 314.48 1166.23 315.04 1166.84 315.66C1167.46 316.28 1167.92 316.99 1168.21 317.79C1168.49 318.59 1168.64 319.54 1168.64 320.66C1168.64 323.05 1167.76 324.86 1165.99 326.09C1164.22 327.32 1161.7 327.93 1158.42 327.93C1156.22 327.93 1154.45 327.75 1153.11 327.38C1151.77 327.01 1150.83 326.72 1150.29 326.5L1151.29 321.67C1152.15 322.02 1153.18 322.35 1154.37 322.67C1155.59 322.98 1156.95 323.14 1158.48 323.14Z" fill="white"/>
<path d="M1196.67 314.77C1196.67 316.75 1196.39 318.54 1195.81 320.17C1195.24 321.8 1194.43 323.18 1193.38 324.33C1192.33 325.48 1191.06 326.37 1189.58 327.01C1188.1 327.65 1186.46 327.97 1184.68 327.97C1182.9 327.97 1181.27 327.65 1179.81 327.01C1178.34 326.37 1177.08 325.48 1176.03 324.33C1174.98 323.18 1174.16 321.8 1173.57 320.17C1172.98 318.54 1172.69 316.75 1172.69 314.77C1172.69 312.79 1172.98 311 1173.57 309.39C1174.16 307.78 1174.99 306.4 1176.06 305.26C1177.13 304.11 1178.39 303.23 1179.86 302.61C1181.33 301.99 1182.93 301.68 1184.69 301.68C1186.45 301.68 1188.06 301.99 1189.54 302.61C1191.02 303.23 1192.29 304.12 1193.34 305.26C1194.39 306.41 1195.21 307.79 1195.8 309.39C1196.37 311.01 1196.67 312.8 1196.67 314.77ZM1190.74 314.77C1190.74 312.28 1190.2 310.32 1189.14 308.87C1188.07 307.42 1186.58 306.7 1184.67 306.7C1182.76 306.7 1181.27 307.42 1180.2 308.87C1179.13 310.32 1178.6 312.29 1178.6 314.77C1178.6 317.29 1179.13 319.28 1180.2 320.74C1181.27 322.2 1182.76 322.94 1184.67 322.94C1186.58 322.94 1188.07 322.2 1189.14 320.74C1190.2 319.28 1190.74 317.29 1190.74 314.77Z" fill="white"/>
<path d="M1212.83 290.21C1214.17 290.21 1215.35 290.33 1216.37 290.57C1217.39 290.81 1218.16 291.02 1218.66 291.22L1217.56 296C1217.02 295.75 1216.39 295.54 1215.67 295.38C1214.95 295.22 1214.18 295.14 1213.35 295.14C1212.42 295.14 1211.64 295.28 1211.01 295.55C1210.37 295.82 1209.86 296.2 1209.48 296.67C1209.1 297.15 1208.83 297.73 1208.67 298.42C1208.51 299.1 1208.43 299.85 1208.43 300.64V302.31H1217.51V307.14H1208.43V327.31H1202.65V300.54C1202.65 297.32 1203.49 294.79 1205.18 292.96C1206.87 291.12 1209.42 290.21 1212.83 290.21Z" fill="white"/>
<path d="M1221.47 295.7L1227.25 294.74V302.29H1236.14V307.12H1227.25V317.3C1227.25 319.31 1227.57 320.74 1228.21 321.6C1228.85 322.46 1229.93 322.89 1231.46 322.89C1232.51 322.89 1233.44 322.78 1234.25 322.55C1235.06 322.33 1235.71 322.12 1236.19 321.93L1237.15 326.52C1236.48 326.81 1235.6 327.1 1234.52 327.41C1233.43 327.71 1232.16 327.86 1230.7 327.86C1228.91 327.86 1227.42 327.62 1226.23 327.14C1225.04 326.66 1224.09 325.97 1223.39 325.06C1222.69 324.15 1222.2 323.05 1221.91 321.76C1221.62 320.47 1221.48 318.99 1221.48 317.34V295.7H1221.47Z" fill="white"/>
<path d="M1256.68 311.57C1255.95 314.37 1255.16 317.11 1254.32 319.77C1253.48 322.43 1252.64 324.94 1251.81 327.3H1247.06C1246.42 325.83 1245.75 324.16 1245.05 322.28C1244.35 320.4 1243.65 318.39 1242.95 316.25C1242.25 314.12 1241.54 311.87 1240.84 309.51C1240.14 307.15 1239.45 304.75 1238.78 302.29H1244.9C1245.19 303.63 1245.53 305.07 1245.91 306.62C1246.3 308.17 1246.7 309.74 1247.11 311.35C1247.53 312.96 1247.96 314.53 1248.41 316.06C1248.86 317.59 1249.3 318.99 1249.75 320.27C1250.23 318.8 1250.7 317.29 1251.17 315.73C1251.63 314.17 1252.07 312.61 1252.48 311.05C1252.9 309.49 1253.29 307.97 1253.65 306.49C1254.02 305.01 1254.35 303.61 1254.63 302.3H1259.07C1259.36 303.61 1259.68 305 1260.03 306.49C1260.38 307.97 1260.75 309.49 1261.15 311.05C1261.55 312.61 1261.97 314.17 1262.44 315.73C1262.9 317.29 1263.37 318.81 1263.84 320.27C1264.26 318.99 1264.69 317.59 1265.14 316.06C1265.59 314.53 1266.03 312.96 1266.46 311.35C1266.9 309.74 1267.3 308.16 1267.69 306.62C1268.08 305.08 1268.41 303.63 1268.7 302.29H1274.67C1274 304.74 1273.31 307.15 1272.61 309.51C1271.91 311.87 1271.2 314.12 1270.5 316.25C1269.8 318.39 1269.1 320.39 1268.39 322.28C1267.69 324.16 1267 325.83 1266.33 327.3H1261.63C1260.81 324.94 1259.95 322.43 1259.08 319.77C1258.21 317.11 1257.41 314.37 1256.68 311.57Z" fill="white"/>
<path d="M1287.34 301.68C1289.25 301.68 1290.86 301.92 1292.17 302.4C1293.48 302.88 1294.52 303.55 1295.3 304.41C1296.08 305.27 1296.64 306.32 1296.97 307.54C1297.3 308.77 1297.47 310.12 1297.47 311.58V326.73C1296.58 326.92 1295.23 327.15 1293.43 327.42C1291.63 327.69 1289.6 327.82 1287.33 327.82C1285.83 327.82 1284.46 327.68 1283.22 327.39C1281.98 327.1 1280.92 326.64 1280.04 326C1279.16 325.36 1278.48 324.54 1277.99 323.51C1277.5 322.49 1277.25 321.23 1277.25 319.73C1277.25 318.3 1277.53 317.09 1278.09 316.1C1278.65 315.11 1279.4 314.31 1280.36 313.68C1281.32 313.06 1282.43 312.61 1283.68 312.34C1284.94 312.07 1286.25 311.94 1287.62 311.94C1288.26 311.94 1288.93 311.98 1289.63 312.06C1290.33 312.14 1291.08 312.28 1291.88 312.47V311.51C1291.88 310.84 1291.8 310.2 1291.64 309.6C1291.48 309 1291.2 308.46 1290.8 308C1290.4 307.54 1289.87 307.18 1289.22 306.92C1288.57 306.67 1287.75 306.54 1286.76 306.54C1285.42 306.54 1284.19 306.64 1283.08 306.83C1281.96 307.02 1281.05 307.24 1280.35 307.5L1279.63 302.82C1280.36 302.56 1281.43 302.31 1282.83 302.05C1284.25 301.8 1285.75 301.68 1287.34 301.68ZM1287.82 323.24C1289.61 323.24 1290.96 323.14 1291.88 322.95V316.54C1291.56 316.45 1291.1 316.35 1290.49 316.25C1289.89 316.16 1289.22 316.11 1288.48 316.11C1287.84 316.11 1287.2 316.16 1286.55 316.25C1285.9 316.35 1285.31 316.52 1284.78 316.78C1284.25 317.03 1283.83 317.39 1283.51 317.85C1283.19 318.31 1283.03 318.9 1283.03 319.6C1283.03 320.97 1283.46 321.92 1284.32 322.44C1285.18 322.96 1286.35 323.24 1287.82 323.24Z" fill="white"/>
<path d="M1318.79 307.51C1318.31 307.35 1317.65 307.18 1316.81 307.01C1315.97 306.83 1314.99 306.75 1313.87 306.75C1313.23 306.75 1312.56 306.82 1311.84 306.94C1311.12 307.07 1310.62 307.18 1310.33 307.27V327.3H1304.55V303.5C1305.67 303.08 1307.06 302.69 1308.73 302.33C1310.4 301.96 1312.26 301.78 1314.3 301.78C1314.68 301.78 1315.13 301.8 1315.64 301.85C1316.15 301.9 1316.66 301.96 1317.17 302.04C1317.68 302.12 1318.17 302.22 1318.65 302.33C1319.13 302.44 1319.51 302.54 1319.8 302.64L1318.79 307.51Z" fill="white"/>
<path d="M1322.42 314.92C1322.42 312.72 1322.75 310.8 1323.4 309.14C1324.05 307.48 1324.92 306.1 1326 305.01C1327.09 303.91 1328.33 303.08 1329.73 302.52C1331.13 301.96 1332.57 301.68 1334.03 301.68C1337.47 301.68 1340.16 302.75 1342.08 304.88C1344.01 307.02 1344.97 310.2 1344.97 314.44C1344.97 314.76 1344.96 315.12 1344.95 315.51C1344.93 315.91 1344.91 316.27 1344.88 316.58H1328.39C1328.55 318.59 1329.26 320.14 1330.52 321.24C1331.78 322.34 1333.6 322.89 1335.99 322.89C1337.39 322.89 1338.67 322.76 1339.84 322.5C1341 322.25 1341.92 321.97 1342.59 321.69L1343.36 326.42C1343.04 326.58 1342.6 326.75 1342.05 326.92C1341.49 327.1 1340.86 327.25 1340.14 327.4C1339.42 327.54 1338.65 327.66 1337.82 327.76C1336.99 327.85 1336.14 327.9 1335.28 327.9C1333.08 327.9 1331.17 327.57 1329.55 326.92C1327.92 326.27 1326.59 325.36 1325.54 324.19C1324.49 323.03 1323.7 321.66 1323.19 320.08C1322.67 318.52 1322.42 316.8 1322.42 314.92ZM1339.2 312.34C1339.2 311.54 1339.09 310.78 1338.87 310.07C1338.64 309.35 1338.32 308.73 1337.89 308.21C1337.46 307.69 1336.93 307.27 1336.31 306.97C1335.69 306.67 1334.95 306.52 1334.09 306.52C1333.2 306.52 1332.42 306.69 1331.75 307.02C1331.08 307.35 1330.51 307.79 1330.05 308.33C1329.59 308.87 1329.23 309.49 1328.97 310.19C1328.72 310.89 1328.54 311.61 1328.44 312.34H1339.2Z" fill="white"/>
<path d="M1360.85 314.92C1360.85 312.72 1361.18 310.8 1361.83 309.14C1362.48 307.48 1363.35 306.1 1364.43 305.01C1365.52 303.91 1366.76 303.08 1368.16 302.52C1369.56 301.96 1371 301.68 1372.46 301.68C1375.9 301.68 1378.59 302.75 1380.51 304.88C1382.44 307.02 1383.4 310.2 1383.4 314.44C1383.4 314.76 1383.39 315.12 1383.38 315.51C1383.36 315.91 1383.34 316.27 1383.31 316.58H1366.82C1366.98 318.59 1367.69 320.14 1368.95 321.24C1370.21 322.34 1372.03 322.89 1374.42 322.89C1375.82 322.89 1377.1 322.76 1378.27 322.5C1379.43 322.25 1380.35 321.97 1381.02 321.69L1381.79 326.42C1381.47 326.58 1381.03 326.75 1380.48 326.92C1379.92 327.1 1379.29 327.25 1378.57 327.4C1377.85 327.54 1377.08 327.66 1376.25 327.76C1375.42 327.85 1374.57 327.9 1373.71 327.9C1371.51 327.9 1369.6 327.57 1367.98 326.92C1366.35 326.27 1365.02 325.36 1363.97 324.19C1362.92 323.03 1362.13 321.66 1361.62 320.08C1361.1 318.52 1360.85 316.8 1360.85 314.92ZM1377.63 312.34C1377.63 311.54 1377.52 310.78 1377.3 310.07C1377.07 309.35 1376.75 308.73 1376.32 308.21C1375.89 307.69 1375.36 307.27 1374.74 306.97C1374.12 306.67 1373.38 306.52 1372.52 306.52C1371.63 306.52 1370.85 306.69 1370.18 307.02C1369.51 307.35 1368.94 307.79 1368.48 308.33C1368.02 308.87 1367.66 309.49 1367.4 310.19C1367.15 310.89 1366.97 311.61 1366.87 312.34H1377.63Z" fill="white"/>
<path d="M1389.53 303.11C1390.65 302.79 1392.1 302.49 1393.88 302.2C1395.67 301.91 1397.64 301.77 1399.81 301.77C1401.85 301.77 1403.56 302.05 1404.92 302.61C1406.29 303.17 1407.38 303.95 1408.2 304.95C1409.01 305.95 1409.58 307.17 1409.92 308.58C1410.25 310 1410.42 311.55 1410.42 313.24V327.29H1404.64V314.15C1404.64 312.81 1404.55 311.67 1404.38 310.73C1404.2 309.79 1403.92 309.03 1403.52 308.44C1403.12 307.85 1402.58 307.42 1401.9 307.15C1401.21 306.88 1400.38 306.74 1399.39 306.74C1398.65 306.74 1397.89 306.79 1397.09 306.88C1396.29 306.98 1395.7 307.06 1395.32 307.12V327.29H1389.54V303.11H1389.53Z" fill="white"/>
<path d="M1438.14 324.76C1438.14 328.74 1437.12 331.66 1435.1 333.5C1433.08 335.35 1429.98 336.27 1425.8 336.27C1424.27 336.27 1422.78 336.14 1421.33 335.89C1419.88 335.63 1418.57 335.3 1417.39 334.89L1418.44 329.97C1419.43 330.38 1420.55 330.72 1421.81 330.97C1423.07 331.23 1424.43 331.35 1425.9 331.35C1428.23 331.35 1429.88 330.88 1430.87 329.92C1431.86 328.96 1432.35 327.54 1432.35 325.66V324.7C1431.77 324.99 1431.02 325.28 1430.08 325.56C1429.14 325.84 1428.07 325.99 1426.86 325.99C1425.27 325.99 1423.81 325.74 1422.48 325.23C1421.16 324.72 1420.03 323.97 1419.09 322.98C1418.15 321.99 1417.42 320.76 1416.89 319.28C1416.36 317.8 1416.1 316.09 1416.1 314.14C1416.1 312.32 1416.38 310.65 1416.94 309.12C1417.5 307.59 1418.31 306.28 1419.38 305.2C1420.45 304.12 1421.74 303.27 1423.27 302.67C1424.8 302.06 1426.54 301.76 1428.48 301.76C1430.36 301.76 1432.14 301.9 1433.84 302.19C1435.53 302.48 1436.96 302.78 1438.14 303.1V324.76V324.76ZM1422.03 314.15C1422.03 316.6 1422.56 318.4 1423.63 319.53C1424.7 320.66 1426.08 321.23 1427.76 321.23C1428.69 321.23 1429.55 321.11 1430.37 320.85C1431.18 320.6 1431.84 320.29 1432.35 319.94V306.99C1431.93 306.89 1431.42 306.81 1430.82 306.73C1430.21 306.65 1429.45 306.61 1428.53 306.61C1426.43 306.61 1424.82 307.3 1423.7 308.69C1422.59 310.06 1422.03 311.89 1422.03 314.15Z" fill="white"/>
<path d="M1451.95 294.98C1451.95 296.07 1451.6 296.92 1450.9 297.56C1450.2 298.2 1449.37 298.52 1448.41 298.52C1447.42 298.52 1446.58 298.2 1445.87 297.56C1445.17 296.92 1444.82 296.06 1444.82 294.98C1444.82 293.87 1445.17 292.99 1445.87 292.35C1446.57 291.72 1447.42 291.4 1448.41 291.4C1449.37 291.4 1450.19 291.72 1450.9 292.35C1451.6 292.99 1451.95 293.87 1451.95 294.98ZM1451.33 327.3H1445.55V302.3H1451.33V327.3Z" fill="white"/>
<path d="M1458.69 303.11C1459.81 302.79 1461.26 302.49 1463.04 302.2C1464.83 301.91 1466.8 301.77 1468.97 301.77C1471.01 301.77 1472.72 302.05 1474.08 302.61C1475.45 303.17 1476.54 303.95 1477.36 304.95C1478.17 305.95 1478.74 307.17 1479.08 308.58C1479.41 310 1479.58 311.55 1479.58 313.24V327.29H1473.8V314.15C1473.8 312.81 1473.71 311.67 1473.54 310.73C1473.36 309.79 1473.08 309.03 1472.68 308.44C1472.28 307.85 1471.74 307.42 1471.06 307.15C1470.37 306.88 1469.54 306.74 1468.55 306.74C1467.81 306.74 1467.05 306.79 1466.26 306.88C1465.46 306.98 1464.87 307.06 1464.49 307.12V327.29H1458.71V303.11H1458.69Z" fill="white"/>
<path d="M1485.26 314.92C1485.26 312.72 1485.59 310.8 1486.24 309.14C1486.89 307.48 1487.76 306.1 1488.84 305.01C1489.93 303.91 1491.17 303.08 1492.57 302.52C1493.97 301.96 1495.41 301.68 1496.87 301.68C1500.31 301.68 1503 302.75 1504.92 304.88C1506.85 307.02 1507.81 310.2 1507.81 314.44C1507.81 314.76 1507.8 315.12 1507.79 315.51C1507.77 315.91 1507.75 316.27 1507.72 316.58H1491.23C1491.39 318.59 1492.1 320.14 1493.36 321.24C1494.62 322.34 1496.44 322.89 1498.83 322.89C1500.23 322.89 1501.51 322.76 1502.68 322.5C1503.84 322.25 1504.76 321.97 1505.43 321.69L1506.2 326.42C1505.88 326.58 1505.44 326.75 1504.89 326.92C1504.33 327.1 1503.7 327.25 1502.98 327.4C1502.26 327.54 1501.49 327.66 1500.66 327.76C1499.83 327.85 1498.98 327.9 1498.12 327.9C1495.92 327.9 1494.01 327.57 1492.39 326.92C1490.76 326.27 1489.43 325.36 1488.38 324.19C1487.33 323.03 1486.54 321.66 1486.03 320.08C1485.52 318.52 1485.26 316.8 1485.26 314.92ZM1502.04 312.34C1502.04 311.54 1501.93 310.78 1501.71 310.07C1501.48 309.35 1501.16 308.73 1500.73 308.21C1500.3 307.69 1499.77 307.27 1499.15 306.97C1498.53 306.67 1497.79 306.52 1496.93 306.52C1496.04 306.52 1495.26 306.69 1494.59 307.02C1493.92 307.35 1493.35 307.79 1492.89 308.33C1492.43 308.87 1492.07 309.49 1491.81 310.19C1491.56 310.89 1491.38 311.61 1491.28 312.34H1502.04Z" fill="white"/>
<path d="M1512.56 314.92C1512.56 312.72 1512.89 310.8 1513.54 309.14C1514.19 307.48 1515.06 306.1 1516.14 305.01C1517.23 303.91 1518.47 303.08 1519.87 302.52C1521.27 301.96 1522.71 301.68 1524.17 301.68C1527.61 301.68 1530.3 302.75 1532.22 304.88C1534.15 307.02 1535.11 310.2 1535.11 314.44C1535.11 314.76 1535.1 315.12 1535.09 315.51C1535.07 315.91 1535.05 316.27 1535.02 316.58H1518.53C1518.69 318.59 1519.4 320.14 1520.66 321.24C1521.92 322.34 1523.74 322.89 1526.13 322.89C1527.53 322.89 1528.81 322.76 1529.98 322.5C1531.14 322.25 1532.06 321.97 1532.73 321.69L1533.5 326.42C1533.18 326.58 1532.74 326.75 1532.19 326.92C1531.63 327.1 1531 327.25 1530.28 327.4C1529.56 327.54 1528.79 327.66 1527.96 327.76C1527.13 327.85 1526.28 327.9 1525.42 327.9C1523.22 327.9 1521.31 327.57 1519.69 326.92C1518.06 326.27 1516.73 325.36 1515.68 324.19C1514.63 323.03 1513.84 321.66 1513.33 320.08C1512.81 318.52 1512.56 316.8 1512.56 314.92ZM1529.33 312.34C1529.33 311.54 1529.22 310.78 1529 310.07C1528.77 309.35 1528.45 308.73 1528.02 308.21C1527.59 307.69 1527.06 307.27 1526.44 306.97C1525.82 306.67 1525.08 306.52 1524.22 306.52C1523.33 306.52 1522.55 306.69 1521.88 307.02C1521.21 307.35 1520.64 307.79 1520.18 308.33C1519.72 308.87 1519.36 309.49 1519.1 310.19C1518.85 310.89 1518.67 311.61 1518.57 312.34H1529.33Z" fill="white"/>
<path d="M1555.48 307.51C1555 307.35 1554.34 307.18 1553.5 307.01C1552.66 306.83 1551.68 306.75 1550.56 306.75C1549.92 306.75 1549.25 306.82 1548.53 306.94C1547.81 307.07 1547.31 307.18 1547.02 307.27V327.3H1541.24V303.5C1542.36 303.08 1543.75 302.69 1545.42 302.33C1547.09 301.96 1548.95 301.78 1550.99 301.78C1551.37 301.78 1551.82 301.8 1552.33 301.85C1552.84 301.9 1553.35 301.96 1553.86 302.04C1554.37 302.12 1554.86 302.22 1555.34 302.33C1555.82 302.44 1556.2 302.54 1556.49 302.64L1555.48 307.51Z" fill="white"/>
<path d="M946.59 74.42H906.91C901.21 74.42 896.14 78.53 895.46 84.19C891.95 113.35 857.46 132.74 828.22 111.46C820.11 105.56 814.93 96.33 813.84 86.36C813.09 79.49 807.36 74.42 800.48 74.42H786.11C785.04 74.42 784.1 75.14 783.83 76.18L757.64 175.91C757.03 178.22 756.73 180.59 756.73 182.97V243.97C756.73 247.11 759.27 249.65 762.41 249.65H807.57C810.71 249.65 813.25 247.11 813.25 243.97V169.85C826.21 175.91 840.08 178.99 854.51 178.99C868.95 178.99 882.81 175.92 895.77 169.85V243.97C895.77 247.11 898.31 249.65 901.45 249.65H946.61C949.75 249.65 952.29 247.11 952.29 243.97V80.1C952.26 76.96 949.72 74.42 946.59 74.42Z" fill="white"/>
<path d="M697.44 100.89C690.16 93.1899 681.34 87.1199 671.2 82.8499C661.08 78.5899 649.84 76.4399 637.78 76.4399C625.91 76.4399 614.77 78.5999 604.66 82.8599C594.54 87.1199 585.67 93.1799 578.3 100.87C570.94 108.55 565.11 117.93 560.98 128.75C556.86 139.51 554.78 151.57 554.78 164.59C554.78 177.59 556.81 189.69 560.81 200.53C564.84 211.45 570.55 220.94 577.8 228.71C585.07 236.53 593.91 242.66 604.06 246.93C614.17 251.19 625.51 253.34 637.78 253.34C650.24 253.34 661.69 251.18 671.8 246.93C674.57 245.76 677.21 244.42 679.76 242.96C681.85 241.76 683.32 239.73 683.94 237.41L712.75 129.84C713.29 127.84 713.17 125.69 712.34 123.79C708.51 115.05 703.54 107.34 697.44 100.89ZM657.54 194.97C652.91 201.79 646.45 205.11 637.79 205.11C629.1 205.11 622.59 201.78 617.86 194.94C612.81 187.64 610.25 177.43 610.25 164.59C610.25 151.78 612.8 141.68 617.83 134.58C622.55 127.91 629.08 124.67 637.79 124.67C646.47 124.67 652.94 127.9 657.57 134.55C662.51 141.66 665.02 151.76 665.02 164.59C665.02 177.43 662.5 187.66 657.54 194.97Z" fill="white"/>
<path d="M770.3 74.42H742.04C739.6 74.42 737.08 76.4 736.43 78.85L691.94 245.23C691.28 247.67 692.74 249.66 695.18 249.66H723.44C725.88 249.66 728.4 247.68 729.05 245.23L773.54 78.85C774.19 76.4 772.74 74.42 770.3 74.42Z" fill="#009EE2"/>
</svg>
