<svg width="28" height="20" viewBox="0 0 28 20" fill="none" xmlns="http://www.w3.org/2000/svg">
<path d="M26.537 3.65425C26.2418 2.44625 25.3072 1.48992 24.1759 1.18792C22.0607 0.583923 13.6984 0.583923 13.6984 0.583923C13.6984 0.583923 5.287 0.583923 3.17184 1.18792C2.04048 1.48992 1.10587 2.44625 0.810736 3.65425C0.220459 5.76825 0.220459 10.2982 0.220459 10.2982C0.220459 10.2982 0.220459 14.7779 0.810736 16.9422C1.10587 18.1502 2.04048 19.0562 3.17184 19.3582C5.287 19.9119 13.6984 19.9119 13.6984 19.9119C13.6984 19.9119 22.0607 19.9119 24.1759 19.3582C25.3072 19.0562 26.2418 18.1502 26.537 16.9422C27.1272 14.7779 27.1272 10.2982 27.1272 10.2982C27.1272 10.2982 27.1272 5.76825 26.537 3.65425ZM10.9438 14.3752V6.22124L17.9288 10.2982L10.9438 14.3752Z" fill="url(#paint0_linear)"/>
<defs>
<linearGradient id="paint0_linear" x1="3.02105" y1="15.5639" x2="9.94883" y2="-1.04259" gradientUnits="userSpaceOnUse">
<stop offset="0.00318669" stop-color="#349EFE"/>
<stop offset="1" stop-color="#005BAE"/>
</linearGradient>
</defs>
</svg>
