<svg width="28" height="20" viewBox="0 0 28 20" fill="none" xmlns="http://www.w3.org/2000/svg">
<path d="M26.5367 3.65422C26.2416 2.44622 25.307 1.48989 24.1756 1.18789C22.0605 0.583893 13.6982 0.583893 13.6982 0.583893C13.6982 0.583893 5.28679 0.583893 3.17163 1.18789C2.04027 1.48989 1.10566 2.44622 0.810522 3.65422C0.220245 5.76821 0.220245 10.2982 0.220245 10.2982C0.220245 10.2982 0.220245 14.7779 0.810522 16.9422C1.10566 18.1502 2.04027 19.0562 3.17163 19.3582C5.28679 19.9119 13.6982 19.9119 13.6982 19.9119C13.6982 19.9119 22.0605 19.9119 24.1756 19.3582C25.307 19.0562 26.2416 18.1502 26.5367 16.9422C27.127 14.7779 27.127 10.2982 27.127 10.2982C27.127 10.2982 27.127 5.76821 26.5367 3.65422ZM10.9436 14.3752V6.22121L17.9285 10.2982L10.9436 14.3752Z" fill="url(#paint0_linear)"/>
<defs>
<linearGradient id="paint0_linear" x1="0.220245" y1="11.1107" x2="27.1271" y2="11.0951" gradientUnits="userSpaceOnUse">
<stop offset="0.00318669" stop-color="#007AEA"/>
<stop offset="1" stop-color="#17D8B5"/>
</linearGradient>
</defs>
</svg>
