<?xml version="1.0" encoding="UTF-8"?>
<svg id="Layer_2" data-name="Layer 2" xmlns="http://www.w3.org/2000/svg" viewBox="0 0 597.8 103.3">
  <g>
    <polygon points="30.8 .6 7 .6 7 101.2 72.9 101.2 72.9 81.8 30.8 81.8 30.8 .6" style="fill: #fff;"/>
    <path d="M142.6,31.3c-3.1-2.1-6.6-3.8-10.7-4.9-4.1-1.1-8.5-1.7-13.1-1.7s-11.8.9-16.5,2.7c-4.7,1.8-8.5,4.4-11.4,7.6-2.9,3.3-4.9,7.1-5.8,11.4l21.3,2.8c.4-1.6,1.2-2.9,2.3-4.1,1.1-1.2,2.5-2.1,4.2-2.7,1.7-.6,3.6-.9,5.8-.9s4,.3,5.5.9c1.5.6,2.7,1.6,3.5,2.8.8,1.2,1.2,2.7,1.2,4.5v.3c0,1.5-.6,2.7-1.8,3.6-1.2.9-3.1,1.5-5.7,1.9-2.6.4-6.1.8-10.3,1.2-3.8.3-7.4.9-10.8,1.9-3.4.9-6.4,2.3-9,4.1-2.6,1.8-4.6,4.1-6.1,7-1.5,2.9-2.2,6.4-2.2,10.6s1.1,9.1,3.2,12.4c2.1,3.3,5.1,5.8,8.8,7.4,3.8,1.6,8,2.5,12.9,2.5s6.7-.5,9.4-1.4c2.8-.9,5.2-2.3,7.3-4,2.1-1.8,3.8-3.9,5.2-6.6h.6v10.6h22.2v-51.3c0-4.1-.9-7.6-2.6-10.8-1.7-3.1-4.1-5.8-7.2-7.9ZM129,74.4c0,2.5-.6,4.7-1.9,6.6-1.3,1.9-3,3.4-5.1,4.5-2.1,1.1-4.5,1.6-7.2,1.6s-3.6-.3-5-.9c-1.4-.6-2.6-1.5-3.4-2.6-.9-1.1-1.3-2.6-1.3-4.2s.4-3.2,1.3-4.4c.9-1.2,2.1-2.2,3.7-3,1.6-.8,3.6-1.3,5.9-1.6,1.1-.2,2.3-.4,3.5-.6s2.4-.4,3.6-.7c1.2-.2,2.3-.5,3.3-.8,1-.3,1.9-.7,2.5-1v7.2Z" style="fill: #fff;"/>
    <path d="M203.6,24.8c-4.1,0-7.8,1.2-10.9,3.6-3.1,2.4-5.4,6.1-6.7,11.1h-.8v-13.8h-22.9v75.5h23.6v-41.2c0-3,.7-5.6,2-7.9,1.3-2.3,3.1-4,5.4-5.3,2.3-1.3,4.9-1.9,7.8-1.9s3.1.1,4.9.3c1.8.2,3.3.5,4.4.9v-20.5c-1-.3-2.1-.5-3.3-.6-1.2-.1-2.3-.2-3.4-.2Z" style="fill: #fff;"/>
    <path d="M270.1,31.3c-3.1-2.1-6.6-3.8-10.7-4.9-4.1-1.1-8.5-1.7-13.1-1.7s-11.8.9-16.5,2.7c-4.7,1.8-8.5,4.4-11.4,7.6-2.9,3.3-4.9,7.1-5.8,11.4l21.3,2.8c.4-1.6,1.2-2.9,2.3-4.1,1.1-1.2,2.5-2.1,4.2-2.7,1.7-.6,3.6-.9,5.8-.9s4,.3,5.5.9c1.5.6,2.7,1.6,3.5,2.8.8,1.2,1.2,2.7,1.2,4.5v.3c0,1.5-.6,2.7-1.8,3.6-1.2.9-3.1,1.5-5.7,1.9-2.6.4-6.1.8-10.3,1.2-3.8.3-7.4.9-10.8,1.9-3.4.9-6.4,2.3-9,4.1-2.6,1.8-4.7,4.1-6.1,7-1.5,2.9-2.2,6.4-2.2,10.6s1.1,9.1,3.2,12.4c2.1,3.3,5.1,5.8,8.8,7.4,3.8,1.6,8,2.5,12.9,2.5s6.7-.5,9.4-1.4c2.8-.9,5.2-2.3,7.3-4,2.1-1.8,3.8-3.9,5.2-6.6h.6v10.6h22.2v-51.3c0-4.1-.9-7.6-2.6-10.8-1.7-3.1-4.1-5.8-7.2-7.9ZM256.5,74.4c0,2.5-.6,4.7-1.9,6.6-1.3,1.9-3,3.4-5.1,4.5-2.1,1.1-4.5,1.6-7.2,1.6s-3.6-.3-5-.9c-1.4-.6-2.6-1.5-3.4-2.6-.9-1.1-1.3-2.6-1.3-4.2s.4-3.2,1.3-4.4c.9-1.2,2.1-2.2,3.7-3,1.6-.8,3.6-1.3,5.9-1.6,1.1-.2,2.3-.4,3.5-.6,1.2-.2,2.4-.4,3.6-.7,1.2-.2,2.3-.5,3.3-.8,1-.3,1.9-.7,2.5-1v7.2Z" style="fill: #fff;"/>
    <path d="M326.3,62.7c-1.5,5-2.8,10.1-3.9,15.2-.4,1.9-.8,3.8-1.2,5.8-.4-2-.8-3.9-1.2-5.8-1.1-5.2-2.5-10.2-4-15.2l-11.3-36.9h-24.9l27.4,75.5h27.3l27.5-75.5h-24.6l-11.1,36.9Z" style="fill: #fff;"/>
    <path d="M425.3,34.7c-3.3-3.3-7.1-5.7-11.5-7.4-4.4-1.7-9.3-2.5-14.6-2.5-7.6,0-14.1,1.6-19.7,4.9-5.6,3.3-9.9,7.8-12.9,13.7-3,5.9-4.6,12.7-4.6,20.4s1.5,15,4.6,20.8c3,5.8,7.4,10.3,13.1,13.4,5.7,3.1,12.5,4.7,20.4,4.7s11.5-.9,16.2-2.6c4.7-1.8,8.6-4.2,11.7-7.5,3.1-3.2,5.3-7,6.5-11.3l-21-3.4c-.6,1.7-1.6,3.1-2.8,4.3-1.2,1.2-2.7,2-4.5,2.6-1.7.6-3.7.9-5.8.9-3.1,0-5.7-.6-8-1.9-2.3-1.3-4.1-3.2-5.4-5.8-1.2-2.3-1.8-5.2-1.9-8.6h50.4v-5.9c0-6.3-.9-11.8-2.7-16.5-1.8-4.8-4.3-8.8-7.6-12.1ZM391.6,43.9c2.1-1.4,4.7-2.1,7.8-2.1s5.6.7,7.7,2c2.1,1.4,3.6,3.3,4.7,5.8.7,1.7,1.2,3.6,1.4,5.8h-27.9c.2-2.2.7-4.1,1.5-5.8,1.1-2.5,2.7-4.4,4.8-5.7Z" style="fill: #fff;"/>
    <rect x="445.3" y=".6" width="23.6" height="100.6" style="fill: #fff;"/>
  </g>
  <path d="M555.3.9c19.6,0,35.5,15.9,35.5,35.5v30.6c0,19.6-15.9,35.5-35.5,35.5h-30.6c-19.6,0-35.5-15.9-35.5-35.5V9.4c0-4.7,3.8-8.6,8.6-8.6h57.5Z" style="fill: #ff2d20;"/>
  <path d="M511.6,36.5h-9.9v30.3h6.4v-9.2h3.6c6.9,0,10.8-3.9,10.8-10.7s-4.1-10.4-11-10.4ZM508.1,42.3h3.4c2.4,0,4.7.5,4.7,4.5s-.8,5.1-4.7,5.1h-3.3v-9.6Z" style="fill: #fff;"/>
  <path d="M543.8,53.1c2.6-1.2,4-3.9,4-7.7s-2.5-9-8-9h-14.9v30.4h6.4v-10.7h5.9c2.1,0,2.3.1,2.9,3.5l1.3,7.2h6.5l-1.4-7.7c-.5-2.9-.9-5-2.7-6ZM531.3,42.3h6.6c2.5,0,3.6.4,3.6,3.9s-1.4,4.5-3.9,4.5h-6.3v-8.4Z" style="fill: #fff;"/>
  <path d="M563.7,36c-9.2,0-14.6,5.9-14.6,15.7s5.5,15.6,14.6,15.6,14.6-5.8,14.6-15.6-5.4-15.7-14.6-15.7ZM571.8,51.7c0,6.3-2.8,9.7-8.1,9.7s-8.2-1.7-8.2-9.7,2.8-9.6,8.2-9.6,8.1,3.4,8.1,9.7Z" style="fill: #fff;"/>
</svg>